<?xml version="1.0" encoding="utf-8"?><!DOCTYPE svg PUBLIC "-//W3C//DTD SVG 1.1//EN" "http://www.w3.org/Graphics/SVG/1.1/DTD/svg11.dtd"><svg viewBox="0 0 513.64 513.64" xmlns="http://www.w3.org/2000/svg" xmlns:xlink="http://www.w3.org/1999/xlink"><style>:root>svg{display:none}:root>svg:target{display:block}</style><svg viewBox="0 0 7 8" id="angle" xmlns="http://www.w3.org/2000/svg"><g clip-path="url(#aclip0)"><path d="M6.92 5.69a.273.273 0 01-.387 0l-2.84-2.834a.274.274 0 00-.387 0L.466 5.69a.273.273 0 01-.386-.387L2.92 2.47a.818.818 0 011.16 0l2.84 2.833a.273.273 0 010 .387z"/></g><defs><clipPath id="aclip0"><path fill="#fff" transform="matrix(1 0 0 -1 0 7.5)" d="M0 0h7v7H0z"/></clipPath></defs></svg><svg viewBox="0 0 12 8" id="arrow" xmlns="http://www.w3.org/2000/svg"><path d="M11 1.17a1 1 0 00-1.41 0L6 4.71 2.46 1.17a1 1 0 10-1.41 1.42l4.24 4.24a1 1 0 001.42 0L11 2.59a1 1 0 000-1.42z"/></svg><svg viewBox="0 0 512 512" id="arrow-left" xmlns="http://www.w3.org/2000/svg"><path d="M492 236H68.442l70.164-69.824c7.829-7.792 7.859-20.455.067-28.284-7.792-7.83-20.456-7.859-28.285-.068l-104.504 104-.018.019c-7.809 7.792-7.834 20.496-.002 28.314l.018.019 104.504 104c7.828 7.79 20.492 7.763 28.285-.068 7.792-7.829 7.762-20.492-.067-28.284L68.442 276H492c11.046 0 20-8.954 20-20s-8.954-20-20-20z"/></svg><svg viewBox="0 0 12 18" id="arrow-slide" xmlns="http://www.w3.org/2000/svg"><path d="M1.333 10.067l7.6 7.467a1.289 1.289 0 001.867 0 1.289 1.289 0 000-1.867L4.267 9 10.8 2.334a1.289 1.289 0 000-1.867c-.267-.267-.533-.4-.933-.4S9.2.2 8.933.467l-7.6 7.467C.8 8.6.8 9.4 1.333 10.067c0-.133 0-.133 0 0z"/></svg><svg viewBox="0 0 480.006 480.006" id="badge" xmlns="http://www.w3.org/2000/svg"><path d="M478.66 395.595l-58.464-87.728 10.248-3.2a8 8 0 005.072-10.536l-17.976-46.232 36.608-34.04a8 8 0 000-11.712l-36.608-34.032 17.984-46.232a8.001 8.001 0 00-5.072-10.536l-48.128-15.008-4.208-49.36a8.046 8.046 0 00-2.984-5.6 7.936 7.936 0 00-6.088-1.672l-50.088 6.936-25.647-42.752a8 8 0 00-11.264-2.568l-42.04 27.672-42.032-27.672a8 8 0 00-11.264 2.568l-25.648 42.768-50.08-6.936a8 8 0 00-9.072 7.248l-4.216 49.36-48.088 15.008a8 8 0 00-5.072 10.536l17.976 46.232-36.648 34.04a8 8 0 000 11.712l36.608 34.032-17.984 46.232a8.001 8.001 0 005.072 10.536l10.616 3.304-58.984 95.848a8 8 0 008.248 12.064L89.7 401.283l14.464 72.32a8.001 8.001 0 006.288 6.28 7.914 7.914 0 001.552.12 8 8 0 006.656-3.56l56.128-84.192 11.912 19.864a8 8 0 006.904 3.888 7.994 7.994 0 004.4-1.32l42-27.672 42.032 27.672a8 8 0 0011.264-2.568l11.92-19.872 56.128 84.2a8 8 0 008.208 3.408 8.001 8.001 0 006.288-6.28l14.56-72.952 80.88 7.384a8.001 8.001 0 007.376-12.408zm-362.575 55.896l-12.24-61.088a8 8 0 00-9.272-6.304l-70.36 12.8 51.72-84.016 21.752 6.784 4.208 49.36a8.046 8.046 0 002.984 5.6 8 8 0 006.088 1.672l50.088-6.936 4.632 7.728-49.6 74.4zm191.864-94.872l-24.08 40.144-39.464-26.016a8 8 0 00-8.8 0l-39.472 25.984-24.08-40.152a8 8 0 00-6.856-3.888 7.407 7.407 0 00-1.104.08l-46.968 6.496-3.952-46.312a8 8 0 00-5.6-6.96l-45.064-14.064 16.8-43.296a8 8 0 00-2.008-8.76l-34.24-31.872 34.28-31.872a8 8 0 002.008-8.76l-16.8-43.312 45.08-14.056a8 8 0 005.6-6.96l3.952-46.312 46.968 6.504a8 8 0 008-3.816l24.08-40.144 39.376 25.984a8 8 0 008.8 0l39.472-25.984 24.08 40.152a8.055 8.055 0 007.96 3.808l46.968-6.496 3.952 46.312a8 8 0 005.6 6.96l45.08 14.064-16.848 43.296a8 8 0 002.008 8.76l34.272 31.872-34.28 31.872a8 8 0 00-2.008 8.76l16.8 43.312-45.04 14.056a8 8 0 00-5.6 6.96l-3.952 46.312-46.96-6.472a8.054 8.054 0 00-7.96 3.816zm76.776 27.384a8.112 8.112 0 00-8.56 6.4l-12.216 61.064-49.6-74.4 4.624-7.712 50.08 6.936a8 8 0 009.072-7.248l4.216-49.36 21.96-6.848 51.768 77.688-71.344-6.52z"/><path d="M360.004 168.003c0-13.255-10.745-24-24-24h-56v-32c.022-22.069-17.851-39.978-39.92-40h-.08a8 8 0 00-8 8v38.112l-14.4 28.736-25.744 20.6a7.944 7.944 0 00-7.856-7.448h-56a8 8 0 00-8 8v120a8 8 0 008 8h56a8 8 0 008-8h120c13.228-.066 23.934-10.772 24-24a23.722 23.722 0 00-3.2-11.744 22.397 22.397 0 004.064-3.248 23.567 23.567 0 003.936-28.752 22.397 22.397 0 004.064-3.248 23.567 23.567 0 003.936-28.752 22.397 22.397 0 004.064-3.248 23.552 23.552 0 007.136-17.008zm-183.999 112h-40v-104h40v104zm165.551-106.304a7.656 7.656 0 01-5.552 2.304h-32v16h24a8 8 0 018 8 7.79 7.79 0 01-2.448 5.696 7.656 7.656 0 01-5.552 2.304h-32v16h24a8 8 0 018 8 7.79 7.79 0 01-2.448 5.696 7.656 7.656 0 01-5.552 2.304h-32v16h24a8 8 0 018 8 7.79 7.79 0 01-2.448 5.696 7.656 7.656 0 01-5.552 2.304h-120v-84.16l37-29.592a8.044 8.044 0 002.16-2.672l16-32a7.997 7.997 0 00.84-3.576V89.371a23.92 23.92 0 0116 22.632v40a8 8 0 008 8h64a8 8 0 018 8 7.79 7.79 0 01-2.448 5.696z"/></svg><svg viewBox="0 0 20 19" id="cart" xmlns="http://www.w3.org/2000/svg"><path d="M20 6.579h-3.396L13.036.319a.608.608 0 00-.858-.225.678.678 0 00-.214.902l3.182 5.583H4.854L8.036.996a.678.678 0 00-.214-.902.608.608 0 00-.858.225L3.396 6.58H0v1.316h1.357l1.587 8.915c.166.934.941 1.611 1.844 1.611h10.424c.902 0 1.678-.677 1.843-1.61l1.588-8.916H20V6.579zm-4.174 9.99a.634.634 0 01-.614.536H4.788c-.301 0-.56-.225-.615-.537L2.628 7.895h14.744l-1.546 8.674z"/></svg><svg viewBox="0 0 512.003 512.003" id="discount" xmlns="http://www.w3.org/2000/svg"><path d="M477.958 262.633a15.004 15.004 0 010-13.263l19.096-39.065c10.632-21.751 2.208-47.676-19.178-59.023l-38.41-20.38a15.005 15.005 0 01-7.796-10.729l-7.512-42.829c-4.183-23.846-26.241-39.87-50.208-36.479l-43.053 6.09a15.004 15.004 0 01-12.613-4.099l-31.251-30.232c-17.401-16.834-44.661-16.835-62.061 0L193.72 42.859a15.01 15.01 0 01-12.613 4.099l-43.053-6.09c-23.975-3.393-46.025 12.633-50.208 36.479l-7.512 42.827a15.008 15.008 0 01-7.795 10.73l-38.41 20.38c-21.386 11.346-29.81 37.273-19.178 59.024l19.095 39.064a15.004 15.004 0 010 13.263L14.95 301.699c-10.632 21.751-2.208 47.676 19.178 59.023l38.41 20.38a15.005 15.005 0 017.796 10.729l7.512 42.829c3.808 21.708 22.422 36.932 43.815 36.93 2.107 0 4.245-.148 6.394-.452l43.053-6.09a15 15 0 0112.613 4.099l31.251 30.232c8.702 8.418 19.864 12.626 31.03 12.625 11.163-.001 22.332-4.209 31.03-12.625l31.252-30.232c3.372-3.261 7.968-4.751 12.613-4.099l43.053 6.09c23.978 3.392 46.025-12.633 50.208-36.479l7.513-42.827a15.008 15.008 0 017.795-10.73l38.41-20.38c21.386-11.346 29.81-37.273 19.178-59.024l-19.096-39.065zm-13.923 72.002l-38.41 20.38c-12.246 6.499-20.645 18.057-23.04 31.713l-7.512 42.828a15.038 15.038 0 01-16.987 12.342l-43.053-6.09c-13.73-1.945-27.316 2.474-37.281 12.113L266.5 478.152a15.04 15.04 0 01-20.997 0l-31.251-30.232c-8.422-8.147-19.432-12.562-30.926-12.562-2.106 0-4.229.148-6.355.449l-43.053 6.09a15.042 15.042 0 01-16.987-12.342l-7.513-42.829c-2.396-13.656-10.794-25.215-23.041-31.712l-38.41-20.38a15.037 15.037 0 01-6.489-19.969L60.574 275.6c6.088-12.456 6.088-26.742 0-39.198l-19.096-39.065a15.037 15.037 0 016.489-19.969l38.41-20.38c12.246-6.499 20.645-18.057 23.04-31.713l7.512-42.828a15.038 15.038 0 0116.987-12.342l43.053 6.09c13.725 1.943 27.316-2.474 37.281-12.113l31.252-30.232a15.04 15.04 0 0120.997 0l31.251 30.232c9.965 9.64 23.554 14.056 37.281 12.113l43.053-6.09a15.04 15.04 0 0116.987 12.342l7.512 42.829c2.396 13.656 10.794 25.215 23.041 31.712l38.41 20.38a15.037 15.037 0 016.489 19.969l-19.096 39.064c-6.088 12.455-6.088 26.743 0 39.198l19.096 39.064a15.039 15.039 0 01-6.488 19.972z"/><path d="M363.886 148.116c-5.765-5.766-15.115-5.766-20.881 0l-194.889 194.89c-5.766 5.766-5.766 15.115 0 20.881a14.72 14.72 0 0010.44 4.325c3.778 0 7.558-1.441 10.44-4.325l194.889-194.889c5.768-5.767 5.768-15.115.001-20.882zM196.941 123.116c-29.852 0-54.139 24.287-54.139 54.139s24.287 54.139 54.139 54.139 54.139-24.287 54.139-54.139-24.287-54.139-54.139-54.139zm0 78.747c-13.569 0-24.608-11.039-24.608-24.609 0-13.569 11.039-24.608 24.608-24.608s24.609 11.039 24.609 24.608c-.001 13.57-11.04 24.609-24.609 24.609zM315.061 280.61c-29.852 0-54.139 24.287-54.139 54.139s24.287 54.139 54.139 54.139c29.852 0 54.139-24.287 54.139-54.139s-24.287-54.139-54.139-54.139zm0 78.747c-13.569 0-24.609-11.039-24.609-24.608s11.039-24.608 24.609-24.608c13.569 0 24.608 11.039 24.608 24.608s-11.039 24.608-24.608 24.608z"/></svg><svg viewBox="0 0 512 512" id="email" xmlns="http://www.w3.org/2000/svg"><path d="M467 61H45C20.218 61 0 81.196 0 106v300c0 24.72 20.128 45 45 45h422c24.72 0 45-20.128 45-45V106c0-24.72-20.128-45-45-45zm-6.214 30L256.954 294.833 51.359 91h409.427zM30 399.788V112.069l144.479 143.24L30 399.788zM51.213 421l144.57-144.57 50.657 50.222c5.864 5.814 15.327 5.795 21.167-.046L317 277.213 460.787 421H51.213zM482 399.787L338.213 256 482 112.212v287.575z"/></svg><svg fill="none" viewBox="0 0 26 20" id="eye" xmlns="http://www.w3.org/2000/svg"><path clip-rule="evenodd" d="M16.952 10.066a3.952 3.952 0 11-7.904-.001 3.952 3.952 0 017.904.001z" stroke="#fff" stroke-width="1.5" stroke-linecap="round" stroke-linejoin="round"/><path clip-rule="evenodd" d="M12.998 19.194c4.76 0 9.113-3.423 11.565-9.128C22.11 4.361 17.758.94 12.998.94h.005c-4.76 0-9.114 3.422-11.566 9.127 2.452 5.705 6.805 9.128 11.566 9.128h-.005z" stroke="#fff" stroke-width="1.5" stroke-linecap="round" stroke-linejoin="round"/></svg><svg viewBox="0 0 511.653 511.653" id="fire" xmlns="http://www.w3.org/2000/svg"><path d="M380.01 162.453l-16.019-12.996-7.46 19.247c-.143.367-14.473 36.601-36.479 30-4.872-1.462-8.14-4.281-10.283-8.874-5.465-11.706-3.14-32.895 5.922-53.981 12.53-29.157 7.043-59.709-15.868-88.355-16.116-20.149-35.479-32.347-36.296-32.857L240.066 0l.523 27.649c.009.494.514 49.616-35.857 67.629-22.284 11.036-38.236 29.289-44.919 51.397-6.251 20.682-3.626 43.295 7.203 62.04 4.433 7.673 5.776 14.181 3.994 19.343-2.547 7.375-10.775 11.172-13.237 12.16-26.002 10.443-43.023-24.421-43.711-25.86l-11.861-25.316-14.535 23.881C69 243.589 59.135 278.88 59.135 314.981c0 107.656 86.959 195.371 194.329 196.643.784.02 1.57.03 2.359.03h.004c108.456 0 196.691-88.228 196.691-196.673 0-59.384-26.427-114.978-72.508-152.528zM194.311 420.145l-.001-.185c-.147-11.939 2.127-24.742 6.775-38.194l36.971 10.806.373-19.617c.57-30.045 17.513-48.489 31.059-58.467 3.473 15.112 8.888 28.587 16.366 40.809 8.527 13.913 16.602 25.707 24.05 36.367 4.785 6.863 7.499 17.224 7.445 28.425v.072c0 16.424-6.4 31.869-18.021 43.49-11.61 11.609-27.06 18.003-43.504 18.003h-.005c-33.904-.003-61.496-27.584-61.508-61.509zm144.075 39.588c5.856-12.187 8.959-25.624 8.963-39.541.077-17.481-4.481-33.706-12.845-45.7-8.307-11.891-15.409-22.372-23.066-34.865-8.537-13.951-13.671-30.393-15.692-50.264l-1.977-19.423-18.258 6.914c-1.712.648-17.179 6.747-33.032 21.128-16.812 15.25-27.664 34.108-31.966 55.284l-26.814-7.837-5.293 12.072c-9.582 21.853-14.324 42.959-14.095 62.737.014 14.155 3.26 27.568 9.037 39.54-50.263-28.736-84.214-82.876-84.214-144.799 0-22.526 4.528-44.675 13.223-65.152a88.928 88.928 0 004.254 4.394c18.374 17.686 40.513 22.599 62.338 13.836 14.744-5.919 25.83-16.929 30.416-30.206 3.265-9.453 4.81-24.785-6.374-44.144-6.797-11.766-8.382-25.387-4.463-38.353 4.259-14.088 14.741-25.876 29.517-33.194 31.096-15.401 43.808-44.313 48.993-66.245 3.272 3.218 6.634 6.863 9.794 10.871 15.413 19.542 19.213 38.793 11.295 57.219-12.664 29.47-14.737 58.821-5.544 78.515 5.775 12.374 15.751 20.99 28.847 24.919 20.586 6.177 40.719-1.013 56.693-20.243a97.62 97.62 0 006.631-9.02c30.553 31.046 47.763 72.692 47.763 116.803.001 61.891-33.912 116.006-84.131 144.754z"/></svg><svg viewBox="0 0 195.989 195.989" id="logo" xmlns="http://www.w3.org/2000/svg"><path d="M195.935 84.745c-2.07-15.789-20.983-37.722-20.983-37.722-4.933-12.69-17.677-8.47-17.677-8.47l-8.507 2.295c-8.421 2.533-8.025 13.555-4.372 15.789 1.602.978 6.297 1.233 7.685 0 .414-.374.098-2.165.098-2.165 8.933.487 9.584-4.688 9.584-4.688l3.039-.606c3.044-1.665 3.72 5.395 3.72 5.395-2.07 20.009 6.595 27.334 6.595 27.334-1.254 3.973-5.62 3.206-5.62 3.206-13.853-7.197-24.131 6.403-24.131 6.403-7.831-6.671-23.991 5.148-23.991 5.148-9.055 1.79-9.591-9.106-9.591-9.106s-.42-6.941-.713-7.578c-.426-1.084 1.925-.536 1.925-.536 7.965-14.495 0-12.559 0-12.559 1.93-25.008-19.991-19.759-19.991-19.759C76.143 51.748 82.32 68.544 82.32 68.544c-3.702-.904-1.927 4.616-1.927 4.616.956 8.473 3.985 6.552 3.985 6.552.393 2.968 2.058 7.054 2.058 7.054l.256 6.808c-1.903 11.298-13.829 1.927-13.829 1.927-6.996-9.864-24.536-4.348-24.536-4.348-9.061-13.479-23.333-5.785-23.333-5.785 1.516-3.349-.256-20.009-.256-20.009 1.772-2.058 5.331-13.712 5.331-13.712 1.522 2.058 8.388 2.42 8.388 2.42.524 3.093 2.731 4.351 2.731 4.351 4.665 1.934 2.731-13.335 2.731-13.335 1.221-4.847-6.573-6.013-6.573-6.013-13.594-3.739-16.742 4.847-16.742 4.847l-3.547 7.712c-5.063 5.52-14.565 24.368-14.565 24.368-5.469 15.002-.232 17.708-.232 17.708l9.864 7.667c16.736 16.203 26.85 13.877 26.85 13.877 13.46-.256 12.352 8.458 12.352 8.458.536 13.342 9.852 27.182 9.852 27.182.685 2.326 1.172 4.786 1.656 7.222h63.811c1.182-2.636 2.412-5.097 3.508-6.625 5.225-7.38 12.361-16.952 14.991-23.297 5.151-12.477 7.594-12.185 7.594-12.185 18.383 0 28.527-13.329 28.527-13.329 3.014-3.86 7.593-8.616 10.948-10.522 4.513-2.582 3.722-7.408 3.722-7.408z"/></svg><svg viewBox="0 0 118.783 118.783" id="loupe" xmlns="http://www.w3.org/2000/svg"><path d="M115.97 101.597L88.661 74.286a47.75 47.75 0 007.333-25.488c0-26.509-21.49-47.996-47.998-47.996S0 22.289 0 48.798c0 26.51 21.487 47.995 47.996 47.995a47.776 47.776 0 0027.414-8.605l26.984 26.986a9.574 9.574 0 006.788 2.806 9.58 9.58 0 006.791-2.806 9.602 9.602 0 00-.003-13.577zM47.996 81.243c-17.917 0-32.443-14.525-32.443-32.443s14.526-32.444 32.443-32.444c17.918 0 32.443 14.526 32.443 32.444S65.914 81.243 47.996 81.243z"/></svg><svg viewBox="0 0 513.64 513.64" id="phone" xmlns="http://www.w3.org/2000/svg"><path d="M499.66 376.96l-71.68-71.68c-25.6-25.6-69.12-15.359-79.36 17.92-7.68 23.041-33.28 35.841-56.32 30.72-51.2-12.8-120.32-79.36-133.12-133.12-7.68-23.041 7.68-48.641 30.72-56.32 33.28-10.24 43.52-53.76 17.92-79.36l-71.68-71.68c-20.48-17.92-51.2-17.92-69.12 0L18.38 62.08c-48.64 51.2 5.12 186.88 125.44 307.2s256 176.641 307.2 125.44l48.64-48.64c17.921-20.48 17.921-51.2 0-69.12z"/></svg><svg viewBox="0 0 512 512" id="pin" xmlns="http://www.w3.org/2000/svg"><path d="M256 0C161.896 0 85.333 76.563 85.333 170.667c0 28.25 7.063 56.26 20.49 81.104L246.667 506.5c1.875 3.396 5.448 5.5 9.333 5.5s7.458-2.104 9.333-5.5l140.896-254.813c13.375-24.76 20.438-52.771 20.438-81.021C426.667 76.563 350.104 0 256 0zm0 256c-47.052 0-85.333-38.281-85.333-85.333S208.948 85.334 256 85.334s85.333 38.281 85.333 85.333S303.052 256 256 256z"/></svg><svg viewBox="0 0 512 512" id="price" xmlns="http://www.w3.org/2000/svg"><path d="M488.505 78.371L399.403 41.25c-9.774-4.071-20.984-4.07-30.757.001l-42.78 17.819a7.5 7.5 0 005.768 13.848l42.78-17.82c6.105-2.544 13.112-2.545 19.222-.001l89.097 37.119C491.399 95.831 497 103.96 497 112.923v320.75c0 12.473-10.713 22.62-23.88 22.62h-12.16c-4.143 0-7.5 3.357-7.5 7.5s3.357 7.5 7.5 7.5h12.16c21.438 0 38.88-16.876 38.88-37.62v-320.75c0-15.036-9.222-28.598-23.495-34.552zM428.27 456.294H302.25c5.189-5.898 8.03-13.381 8.03-21.3 0-7.903-2.861-15.146-7.595-20.762a32.396 32.396 0 008.189-5.955c6.092-6.093 9.446-14.194 9.446-22.813 0-8.216-3.092-15.72-8.167-21.422a32.319 32.319 0 006.949-5.285c6.092-6.091 9.447-14.192 9.447-22.813 0-8.192-3.073-15.677-8.119-21.374a32.558 32.558 0 007.069-5.349c6.088-6.102 9.44-14.201 9.44-22.808 0-17.794-14.472-32.27-32.261-32.27h-33.63v-141.22c0-8.964 5.601-17.093 14.263-20.706l13.641-5.68a7.5 7.5 0 004.041-9.807 7.498 7.498 0 00-9.807-4.041l-13.646 5.682c-14.271 5.953-23.492 19.516-23.492 34.552v141.221h-31.337c10.435-32.976 9.547-67.391-2.631-107.334-1.85-6.049-5.53-11.23-10.645-14.983a29.27 29.27 0 00-17.428-5.703c-8.138 0-15.705 3.25-21.309 9.151-5.601 5.9-8.453 13.624-8.031 21.748 2.345 45.097-18.457 60.619-47.248 82.104-9.479 7.073-19.839 14.809-30.021 24.296v-9.83c0-4.143-3.357-7.5-7.5-7.5H7.5a7.499 7.499 0 00-7.5 7.5v212.71c0 4.143 3.357 7.5 7.5 7.5h72.4c4.143 0 7.5-3.357 7.5-7.5v-18.868c14.245 1.355 24.649 4.194 34.757 11.941 6.636 5.086 14.816 7.887 23.033 7.887h132.271a39.937 39.937 0 0017.468 4.03h133.34c4.143 0 7.5-3.357 7.5-7.5s-3.357-7.499-7.499-7.499zm-296.988-8.824c-14.142-10.837-29.256-13.848-43.882-15.111v-87.575c0-4.143-3.357-7.5-7.5-7.5s-7.5 3.357-7.5 7.5v114.02H15v-197.71h57.4v51.011c0 4.143 3.357 7.5 7.5 7.5s7.5-3.357 7.5-7.5V284.73c12.546-13.845 25.98-23.87 38.992-33.58 28.809-21.497 56.019-41.803 53.258-94.905a14.235 14.235 0 013.93-10.641 14.247 14.247 0 0110.43-4.479c3.103 0 6.06.967 8.553 2.797a14.065 14.065 0 015.174 7.271c12.403 40.685 12.209 74.915-.611 107.724a7.5 7.5 0 006.985 10.23h90.569c9.518 0 17.261 7.747 17.261 17.27 0 4.605-1.797 8.942-5.048 12.201-3.27 3.262-7.606 5.059-12.213 5.059h-30.81c-4.143 0-7.5 3.357-7.5 7.5s3.357 7.5 7.5 7.5h22.42c9.517 0 17.26 7.747 17.26 17.271 0 4.613-1.794 8.948-5.054 12.207a17.144 17.144 0 01-12.206 5.053h-22.42c-4.143 0-7.5 3.357-7.5 7.5s3.357 7.5 7.5 7.5h14.189c9.518 0 17.261 7.743 17.261 17.26 0 4.612-1.795 8.948-5.053 12.207a17.155 17.155 0 01-12.208 5.063h-22.42c-4.143 0-7.5 3.357-7.5 7.5s3.357 7.5 7.5 7.5h12.38c9.518 0 17.261 7.743 17.261 17.26 0 4.612-1.797 8.952-5.047 12.21-3.046 3.039-7.858 4.978-11.459 5.042-.249.004-133.584.018-133.584.018-4.936-.005-9.876-1.707-13.908-4.798z"/><path d="M411.092 116.255c0-15.76-12.822-28.582-28.582-28.582s-28.582 12.822-28.582 28.582 12.822 28.582 28.582 28.582 28.582-12.822 28.582-28.582zm-42.164 0c0-7.489 6.093-13.582 13.582-13.582s13.582 6.093 13.582 13.582-6.093 13.582-13.582 13.582-13.582-6.092-13.582-13.582zM387.196 372.165h-13.451c-7.085 0-12.849-5.765-12.849-12.85 0-4.143-3.357-7.5-7.5-7.5s-7.5 3.357-7.5 7.5c0 15.097 12.076 27.417 27.074 27.83v16.598c0 4.143 3.357 7.5 7.5 7.5s7.5-3.357 7.5-7.5v-16.598c14.999-.413 27.075-12.733 27.075-27.83v-10.383a22.112 22.112 0 00-15.317-21.082l-33.88-11.005a7.149 7.149 0 01-4.952-6.815v-14.867c0-5.754 4.681-10.436 10.435-10.436h18.28c5.754 0 10.435 4.682 10.435 10.436 0 4.143 3.357 7.5 7.5 7.5s7.5-3.357 7.5-7.5c0-14.025-11.41-25.436-25.435-25.436h-1.641v-16.578c0-4.143-3.357-7.5-7.5-7.5s-7.5 3.357-7.5 7.5v16.578h-1.64c-14.024 0-25.435 11.41-25.435 25.436v14.867a22.11 22.11 0 0015.317 21.081l33.879 11.005a7.15 7.15 0 014.953 6.816v10.383c.002 7.085-5.763 12.85-12.848 12.85z"/></svg><svg viewBox="0 0 329.942 329.942" id="star" xmlns="http://www.w3.org/2000/svg"><path fill="#EE5252" d="M329.208 126.666a14.999 14.999 0 00-12.109-10.209l-95.822-13.922-42.854-86.837a15.001 15.001 0 00-26.902 0l-42.851 86.836-95.825 13.922a15 15 0 00-8.313 25.586l69.339 67.582-16.375 95.446a15 15 0 0021.764 15.813l85.711-45.059 85.71 45.059a15.191 15.191 0 007.021 1.723c8.275-.012 14.979-6.723 14.979-15 0-1.152-.13-2.275-.376-3.352l-16.233-94.629 69.339-67.583a14.997 14.997 0 003.797-15.376z"/></svg><svg viewBox="0 0 329.942 329.942" id="starDisabled" xmlns="http://www.w3.org/2000/svg"><path fill="#b2b5bb" d="M329.208 126.666a14.999 14.999 0 00-12.109-10.209l-95.822-13.922-42.854-86.837a15.001 15.001 0 00-26.902 0l-42.851 86.836-95.825 13.922a15 15 0 00-8.313 25.586l69.339 67.582-16.375 95.446a15 15 0 0021.764 15.813l85.711-45.059 85.71 45.059a15.191 15.191 0 007.021 1.723c8.275-.012 14.979-6.723 14.979-15 0-1.152-.13-2.275-.376-3.352l-16.233-94.629 69.339-67.583a14.997 14.997 0 003.797-15.376z"/></svg><svg viewBox="0 0 24 24" id="telegram" xmlns="http://www.w3.org/2000/svg"><path d="M9.417 15.181l-.397 5.584c.568 0 .814-.244 1.109-.537l2.663-2.545 5.518 4.041c1.012.564 1.725.267 1.998-.931L23.93 3.821l.001-.001c.321-1.496-.541-2.081-1.527-1.714l-21.29 8.151c-1.453.564-1.431 1.374-.247 1.741l5.443 1.693L18.953 5.78c.595-.394 1.136-.176.691.218z"/></svg><svg fill="none" viewBox="0 0 6 11" id="tooltip" xmlns="http://www.w3.org/2000/svg"><path d="M3.78 7.852H2.184a4.09 4.09 0 01.14-1.31c.121-.38.28-.691.476-.933.205-.25.41-.478.616-.682.205-.204.401-.427.588-.669.196-.25.327-.51.392-.78.075-.547-.037-.974-.336-1.28-.299-.317-.69-.474-1.176-.474-.364 0-.695.12-.994.362a1.447 1.447 0 00-.532.96H0C.037 2.147.313 1.465.826 1 1.349.535 2.03.303 2.87.303 3.645.284 4.321.475 4.9.874c.588.4.938.924 1.05 1.574.056.353.065.66.028.92-.037.333-.145.649-.322.946-.168.288-.36.543-.574.766-.205.223-.41.46-.616.71a2.934 2.934 0 00-.504.892c-.13.343-.191.733-.182 1.17zm-.154 2.2a.903.903 0 01-.644.237c-.261 0-.485-.079-.672-.237a.782.782 0 01-.266-.613c0-.25.089-.454.266-.612.187-.158.41-.237.672-.237.261 0 .476.079.644.237a.782.782 0 01.266.612c0 .251-.089.455-.266.613z" fill="#444B58"/></svg><svg fill="none" viewBox="0 0 20 20" id="trash" xmlns="http://www.w3.org/2000/svg"><path d="M18.572 2.857h-5v-.714C13.572.959 12.611 0 11.428 0H8.572C7.388 0 6.429.96 6.429 2.143v.714h-5a.714.714 0 100 1.429h.776L3.572 19.35c.033.369.343.65.714.649h11.428c.37.002.681-.28.715-.65l1.366-15.064h.776a.714.714 0 100-1.429zM7.857 2.143c0-.395.32-.714.715-.714h2.857c.394 0 .714.32.714.714v.714H7.857v-.714zm7.205 16.428H4.938L3.643 4.286H16.36L15.062 18.57z" fill="#4D4D4D" fill-opacity=".3"/><path d="M7.857 16.381v-.003l-.714-10a.716.716 0 00-1.429.101l.715 10a.714.714 0 00.714.664h.051a.714.714 0 00.663-.762zM10 5.714a.714.714 0 00-.714.715v10a.714.714 0 101.428 0v-10A.714.714 0 0010 5.714zM13.622 5.714a.716.716 0 00-.765.664l-.714 10a.714.714 0 00.66.764H12.856c.376.002.688-.288.715-.663l.715-10a.716.716 0 00-.664-.765z" fill="#4D4D4D" fill-opacity=".3"/></svg></svg>