<?xml version="1.0" encoding="utf-8"?><!DOCTYPE svg  PUBLIC '-//W3C//DTD SVG 1.1//EN'  'http://www.w3.org/Graphics/SVG/1.1/DTD/svg11.dtd'><svg viewBox="0 0 100 100" xmlns="http://www.w3.org/2000/svg" xmlns:xlink="http://www.w3.org/1999/xlink"><style>:root>svg{display:none}:root>svg:target{display:block}</style><svg viewBox="0 0 16 18" id="arrow" xmlns="http://www.w3.org/2000/svg"><path d="M15.893 8.493a1.332 1.332 0 00-.28-.44L8.947 1.387A1.339 1.339 0 007.053 3.28l4.4 4.387H1.333a1.333 1.333 0 000 2.666h10.12l-4.4 4.387a1.333 1.333 0 000 1.893 1.333 1.333 0 001.894 0l6.666-6.666c.122-.127.217-.277.28-.44a1.333 1.333 0 000-1.014z"/></svg><svg viewBox="0 0 12 18" id="arrow-up" xmlns="http://www.w3.org/2000/svg"><path d="M10.72 8.053L3.173.52A1.333 1.333 0 101.28 2.4l6.6 6.667-6.6 6.6a1.333 1.333 0 000 1.88 1.333 1.333 0 00.947.4 1.334 1.334 0 00.946-.4l7.547-7.534a1.334 1.334 0 000-1.96z"/></svg><svg id="close-btn" version="1.1" viewBox="0 0 64 64" xml:space="preserve" xmlns="http://www.w3.org/2000/svg"><style>.cst0{fill:#134563}</style><g id="cIcon-Close-O" transform="translate(378 278)"><path class="cst0" d="M-345.9-222.1c-13.2 0-23.9-10.7-23.9-23.9s10.7-23.9 23.9-23.9S-322-259.2-322-246c0 13.1-10.7 23.9-23.9 23.9zm0-45.3c-11.7 0-21.3 9.6-21.3 21.3 0 11.7 9.6 21.3 21.3 21.3s21.3-9.6 21.3-21.3c0-11.7-9.6-21.3-21.3-21.3z" id="cFill-52"/><path class="cst0" id="cFill-53" d="M-356.3-233.8l-1.9-1.9 22.6-22.6 1.9 1.9-22.6 22.6"/><path class="cst0" id="cFill-54" d="M-335.6-233.8l-22.6-22.6 1.9-1.9 22.6 22.6-1.9 1.9"/></g></svg><svg viewBox="0 0 18 34" id="facebook" xmlns="http://www.w3.org/2000/svg"><path d="M14.2 5.867h3.133v-5.3a43.517 43.517 0 00-4.566-.233C8.233.334 5.133 3.1 5.133 8.167v4.367H.017v5.933h5.116v15.2h6.134v-15.2h5.1l.766-5.933h-5.866V8.75c0-1.75.466-2.883 2.933-2.883z"/></svg><svg viewBox="0 0 100 100" id="file" xmlns="http://www.w3.org/2000/svg"><path d="M88.52 24.674L63.623 1.06C62.765.43 61.928 0 60.847 0H14.255c-2.347 0-4.04 1.918-4.04 4.04v91.92c0 2.346 1.918 4.04 4.04 4.04h71.49c2.347 0 4.04-1.694 4.04-4.04V27.448c0-1.061-.407-1.918-1.264-2.776zM64.684 12.939l12.775 12.163H64.684V12.939zm17.245 79.184H18.092V7.877h38.51v20.857c0 2.347 1.919 4.04 4.04 4.04H81.93v59.348z"/><path d="M62.194 37.776c-1.755-.919-3.898-.225-4.816 1.51L36.316 79.714c-.918 1.755-.285 4 1.51 4.817 2.041.938 4.184-.286 4.817-1.51l21.061-40.43a3.569 3.569 0 00-1.51-4.815zM47.153 49.245c0-6.857-4.734-12.408-10.592-12.408-5.857 0-10.591 5.55-10.591 12.408 0 6.857 4.755 12.388 10.591 12.388 5.837 0 10.592-5.551 10.592-12.388zm-14.04 0c0-2.898 1.55-5.265 3.448-5.265s3.45 2.347 3.45 5.265c0 2.918-1.531 5.245-3.45 5.245-1.918 0-3.449-2.347-3.449-5.245zM63.439 60.653c-5.857 0-10.592 5.551-10.592 12.408 0 6.857 4.735 12.408 10.592 12.408S74.03 79.92 74.03 73.061c0-6.857-4.735-12.408-10.592-12.408zm0 17.653c-1.898 0-3.45-2.347-3.45-5.265 0-2.918 1.552-5.266 3.45-5.266 1.898 0 3.449 2.347 3.449 5.266 0 2.918-1.53 5.265-3.45 5.265z"/></svg><svg viewBox="0 0 24 24" id="home" xmlns="http://www.w3.org/2000/svg"><path d="M20 8l-6-5.26a3 3 0 00-4 0L4 8a3 3 0 00-1 2.26V19a3 3 0 003 3h12a3 3 0 003-3v-8.75A3 3 0 0020 8zm-6 12h-4v-5a1 1 0 011-1h2a1 1 0 011 1v5zm5-1a1 1 0 01-1 1h-2v-5a3 3 0 00-3-3h-2a3 3 0 00-3 3v5H6a1 1 0 01-1-1v-8.75a1 1 0 01.34-.75l6-5.25a1 1 0 011.32 0l6 5.25a1.002 1.002 0 01.34.75V19z"/></svg><svg viewBox="0 0 40 40" id="house" xmlns="http://www.w3.org/2000/svg"><path d="M39.277 17.362l-9.788-7.284V1.702C29.49.766 28.724 0 27.787 0c-.936 0-1.702.766-1.702 1.702v5.843l-5.106-3.8a1.66 1.66 0 00-1.958 0L.723 17.362c-.765.51-.85 1.532-.34 2.298.51.765 1.532.85 2.298.34l1.702-1.26v19.558c0 .936.766 1.702 1.702 1.702H34c.936 0 1.702-.766 1.787-1.702V18.86L37.32 20c.34.255.681.34 1.021.34.511 0 1.022-.17 1.277-.68.51-.681.426-1.788-.34-2.298zM17.83 36.68v-8.51h4.425v8.51H17.83zm14.553 0H25.66V26.468c0-.936-.766-1.702-1.703-1.702h-7.744c-.936 0-1.702.766-1.702 1.702v10.213H7.702V19.234h24.681v17.447zM8.315 15.83l11.728-8.681 6.566 4.884c.104.101.222.189.35.26l4.754 3.537H8.315z"/></svg><svg viewBox="0 0 34 34" id="insta" xmlns="http://www.w3.org/2000/svg"><path d="M25.9 6.1a2 2 0 100 4 2 2 0 000-4zm7.667 4.034a12.649 12.649 0 00-.767-4.05 8.233 8.233 0 00-1.933-2.95 7.834 7.834 0 00-2.95-1.917 12.167 12.167 0 00-4.05-.784c-1.767-.1-2.334-.1-6.867-.1-4.533 0-5.1 0-6.867.1a12.167 12.167 0 00-4.05.784 7.967 7.967 0 00-2.95 1.917 7.833 7.833 0 00-1.916 2.95 12.167 12.167 0 00-.784 4.05c-.1 1.766-.1 2.333-.1 6.866 0 4.534 0 5.1.1 6.867.029 1.385.294 2.754.784 4.05a7.833 7.833 0 001.916 2.95 7.966 7.966 0 002.95 1.916c1.296.49 2.666.755 4.05.784 1.767.1 2.334.1 6.867.1 4.533 0 5.1 0 6.867-.1a12.168 12.168 0 004.05-.784 7.834 7.834 0 002.95-1.916 8.083 8.083 0 001.933-2.95c.475-1.3.734-2.667.767-4.05 0-1.767.1-2.334.1-6.867 0-4.533 0-5.1-.1-6.867zm-3 13.533a9.352 9.352 0 01-.567 3.1 5.1 5.1 0 01-1.25 1.916c-.54.551-1.195.978-1.917 1.25a9.352 9.352 0 01-3.1.567c-1.666.084-2.283.1-6.666.1-4.384 0-5 0-6.667-.1a9.552 9.552 0 01-3.233-.5 5.452 5.452 0 01-1.834-1.25A5 5 0 014.1 26.834a9.234 9.234 0 01-.667-3.167c0-1.667-.1-2.284-.1-6.667s0-5 .1-6.666a9.233 9.233 0 01.584-3.167 5 5 0 011.316-1.833A5.233 5.233 0 017.167 4a9.55 9.55 0 013.166-.567c1.667 0 2.284-.1 6.667-.1s5 0 6.667.1a9.35 9.35 0 013.1.567 5.1 5.1 0 011.983 1.333A5.1 5.1 0 0130 7.168a9.35 9.35 0 01.567 3.167c.083 1.666.1 2.283.1 6.666 0 4.384-.017 5-.1 6.667zM17 8.45A8.55 8.55 0 1025.567 17 8.532 8.532 0 0017 8.45zm0 14.1a5.55 5.55 0 110-11.099 5.55 5.55 0 010 11.1z"/></svg><svg viewBox="0 0 100 100" id="label" xmlns="http://www.w3.org/2000/svg"><path d="M99.681 48.698c-.424-.849-1.273-1.698-2.335-2.123L68.473 35.111c2.336-4.883 3.397-10.19 3.185-15.073-.212-6.157-2.76-11.252-6.793-14.861-10.19-8.917-27.6-5.732-39.064 7.43-4.246 4.883-7.43 10.615-8.704 16.56v.849L2.448 37.022C.325 38.083-.524 40.206.325 42.329L12.64 72.9a4.205 4.205 0 002.335 2.336L76.329 99.65c.424.212 1.061.212 1.486.212 1.486 0 3.184-1.06 3.821-2.972l18.046-45.007a4.142 4.142 0 000-3.185zM31.959 17.915c8.28-9.553 20.805-12.526 27.387-6.793 2.972 2.76 3.821 6.58 4.034 9.128.212 3.822-.637 7.856-2.548 11.89l-24.627-9.767c-1.061-.424-2.335-.212-3.397.212l-5.732 2.76c1.274-2.76 2.972-5.095 4.883-7.43zM75.48 90.309L19.645 68.23 9.667 42.966l25.051-12.1 21.23 8.491c-8.28 9.554-20.805 12.314-27.387 6.581-1.698-1.486-4.458-1.273-5.944.425-1.486 1.698-1.274 4.458.424 5.944 3.822 3.185 8.705 4.883 14.012 4.883 8.492 0 18.046-4.458 25.052-12.313.637-.85 1.274-1.486 1.91-2.335l26.326 10.402L75.479 90.31z"/></svg><svg viewBox="0 0 24 24" id="location" xmlns="http://www.w3.org/2000/svg"><path d="M18 4.48a8.485 8.485 0 00-12 12l5.27 5.28a1.002 1.002 0 001.42 0L18 16.43a8.45 8.45 0 000-11.95zM16.57 15L12 19.59 7.43 15a6.46 6.46 0 119.14 0zM9 7.41a4.32 4.32 0 000 6.1 4.31 4.31 0 007.36-3 4.24 4.24 0 00-1.26-3.05A4.3 4.3 0 009 7.41zm4.69 4.68a2.33 2.33 0 11.67-1.63 2.33 2.33 0 01-.72 1.63h.05z"/></svg><svg fill="none" viewBox="0 0 61 43" id="quotes" xmlns="http://www.w3.org/2000/svg"><path d="M14.375 0C5 8.475 0 17.45 0 25.675 0 35.771 5.5 43 13.375 43 20.25 43 26 37.142 26 30.038c0-6.855-5.625-12.713-12.375-12.713 1.125-4.113 4-8.351 8-11.84l-7.25-5.485zm35 0C40 8.475 35 17.45 35 25.675 35 35.771 40.5 43 48.375 43 55.25 43 61 37.142 61 30.038c0-6.855-5.625-12.713-12.375-12.713 1.125-4.113 4-8.351 8-11.84l-7.25-5.485z" fill="#82CDE5"/></svg><svg viewBox="0 0 40 40" id="search" xmlns="http://www.w3.org/2000/svg"><path d="M35.117 28.05l-3.45-3.533a5.133 5.133 0 00-5.667-.95l-1.5-1.5a11.667 11.667 0 10-2.35 2.35l1.483 1.483a5 5 0 00.884 5.767L28.05 35.2a5 5 0 007.067 0 5 5 0 000-7.15zm-14.134-7.067A8.333 8.333 0 119.213 9.184a8.333 8.333 0 0111.77 11.8zm11.784 11.784a1.667 1.667 0 01-2.367 0l-3.533-3.534a1.666 1.666 0 010-2.366 1.666 1.666 0 012.366 0l3.534 3.533a1.666 1.666 0 010 2.367z"/></svg><svg viewBox="0 0 38 32" id="twitter" xmlns="http://www.w3.org/2000/svg"><path d="M37.318 2.583a1.667 1.667 0 00-2.516-1.433 12.465 12.465 0 01-3.124 1.323 8.586 8.586 0 00-5.623-2.07 8.72 8.72 0 00-8.705 8.439 18.387 18.387 0 01-11.357-6.54 1.687 1.687 0 00-1.428-.609 1.665 1.665 0 00-1.308.834 8.793 8.793 0 00-.404 7.948l-.003.002a1.735 1.735 0 00-.827 1.483c-.002.245.013.49.045.732a8.642 8.642 0 002.614 5.52 1.663 1.663 0 00-.11 1.283 8.673 8.673 0 003.936 4.87 12.44 12.44 0 01-5.983.747 1.667 1.667 0 00-1.108 3.055A21.57 21.57 0 0013.1 31.602a21.313 21.313 0 0020.775-15.605c.588-1.972.889-4.019.892-6.077l-.002-.333a9.617 9.617 0 002.553-7.004zm-5.51 5.354a1.658 1.658 0 00-.39 1.17c.017.275.015.551.015.813a18.038 18.038 0 01-.756 5.133A17.808 17.808 0 0113.1 28.27c-1.431 0-2.858-.168-4.25-.502a15.799 15.799 0 004.903-2.606 1.666 1.666 0 00-1.003-2.977 5.346 5.346 0 01-3.69-1.558c.249-.047.496-.105.742-.175a1.666 1.666 0 00-.134-3.239 5.331 5.331 0 01-3.75-2.876c.302.04.605.066.909.076a1.7 1.7 0 001.64-1.16 1.667 1.667 0 00-.667-1.895 5.327 5.327 0 01-2.365-4.785 21.69 21.69 0 0013.683 5.8 1.7 1.7 0 001.362-.6 1.667 1.667 0 00.343-1.445 5.262 5.262 0 01-.145-1.215 5.384 5.384 0 015.377-5.376 5.307 5.307 0 013.908 1.7 1.655 1.655 0 001.535.496c.685-.133 1.36-.312 2.02-.536a11.133 11.133 0 01-1.71 2.54z"/></svg></svg>