<?xml version="1.0" encoding="utf-8"?><svg viewBox="0 0 329 329" xmlns="http://www.w3.org/2000/svg" xmlns:xlink="http://www.w3.org/1999/xlink"><style>:root>svg{display:none}:root>svg:target{display:block}</style><svg fill="none" viewBox="0 0 85 115" id="advantages-1" xmlns="http://www.w3.org/2000/svg"><path d="M82.694 70.653V12.066L42.43 3.16 2.028 12.066v50.238L3.566 77.75 13.63 92.918l28.8 19.761 27.54-18.37 7.41-8.07 5.313-15.587z" fill="#fff"/><path d="M72.908 70.376l1.398-51.072-32.574-7.793-30.617 7.793v51.072l8.108 16.7 24.186 15.446L66.617 84.57l6.29-14.194z" fill="#00728F"/><path fill="#FFCC34" d="M28.73 48.389h27.681v26.719H28.73z"/><path d="M42.5 22.495a2.231 2.231 0 002.238-2.226 2.233 2.233 0 00-2.237-2.227c-1.233 0-2.237 1-2.237 2.227a2.233 2.233 0 002.237 2.226z" fill="#fff"/><path d="M38.779 113.106a6.712 6.712 0 007.443 0L66.077 99.93C77.927 92.068 85 78.91 85 64.731V11.366a2.227 2.227 0 00-1.754-2.174L42.984.286a2.28 2.28 0 00-.97 0L1.751 9.192A2.227 2.227 0 000 11.366v53.368c0 14.178 7.073 27.337 18.923 35.2l19.855 13.172zM4.477 64.734V13.15L42.5 4.739l38.027 8.41v51.585c0 12.683-6.33 24.459-16.93 31.492l-19.855 13.176a2.23 2.23 0 01-2.477 0L21.41 96.226C10.807 89.193 4.477 77.42 4.477 64.734z" fill="#00485A"/><path d="M41.26 104.047a2.258 2.258 0 002.482 0l17.372-11.526c9.356-6.203 14.94-16.59 14.94-27.787V18.51a2.23 2.23 0 00-1.754-2.174L42.985 9.412a2.195 2.195 0 00-.97 0l-31.316 6.924a2.23 2.23 0 00-1.75 2.174v46.227c0 11.194 5.583 21.583 14.938 27.787l17.372 11.523zM13.424 64.734v-44.44l29.079-6.432 29.079 6.432v44.44c0 9.702-4.84 18.706-12.946 24.083l-16.13 10.701-16.13-10.701c-8.112-5.377-12.952-14.38-12.952-24.083z" fill="#00485A"/><path d="M50.648 24.789c14.436 3.173 13.771 3.092 14.224 3.092a2.233 2.233 0 002.18-1.742 2.229 2.229 0 00-1.7-2.658l-13.736-3.04a2.236 2.236 0 00-2.668 1.69 2.23 2.23 0 001.7 2.658z" fill="#fff"/><path d="M29.082 77.27h26.843a2.231 2.231 0 002.236-2.227V48.324a2.231 2.231 0 00-2.236-2.226h-2.237V43.87c0-6.15-5.005-11.133-11.184-11.133-6.166 0-11.185 4.996-11.185 11.133v2.227h-2.237a2.231 2.231 0 00-2.236 2.226v26.72a2.231 2.231 0 002.236 2.226zM35.79 43.87c0-3.682 3.011-6.68 6.71-6.68 3.705 0 6.711 2.992 6.711 6.68v2.227h-13.42V43.87zm-4.47 6.68h22.368v22.266H31.319V50.55z" fill="#00485A"/><path d="M42.5 55.003a2.231 2.231 0 00-2.236 2.227v8.906a2.231 2.231 0 002.237 2.226 2.231 2.231 0 002.237-2.226V57.23a2.231 2.231 0 00-2.237-2.227z" fill="#00485A"/></svg><svg fill="none" viewBox="0 0 116 109" id="advantages-2" xmlns="http://www.w3.org/2000/svg"><ellipse cx="58.031" cy="55.634" rx="48.195" ry="48.851" fill="#fff"/><ellipse cx="58.031" cy="54.65" rx="35.737" ry="35.409" fill="#00728F"/><path d="M33.079 59.14a2.266 2.266 0 11-4.533 0 2.266 2.266 0 014.533 0z" fill="#fff"/><path d="M7.79 66.604c3.11 3.434 2.981 6.178 2.768 10.72-.065 1.362-.138 2.907-.11 4.577.133 8.09 6.064 9.437 10.829 10.517 4.053.92 7.884 1.79 10.182 5.796 3.933 6.978 7.275 12.547 15.014 10.068 2.628-.843 4.509-1.64 6.02-2.281 2.27-.963 3.52-1.493 5.508-1.493 1.986 0 3.237.53 5.507 1.493 1.511.641 3.392 1.438 6.02 2.281 3.675 1.178 6.656.537 9.187-1.701 2.32-2.053 4.13-5.406 5.827-8.367 2.298-4.006 6.129-4.876 10.182-5.796 4.765-1.08 10.696-2.426 10.827-10.517.028-1.672-.045-3.215-.108-4.576-.213-4.543-.342-7.284 2.768-10.719 4.722-5.213 7.794-8.464 7.789-12.06.007-3.838-3.774-7.624-7.789-12.055-3.11-3.437-2.981-6.179-2.768-10.721.063-1.362.136-2.907.108-4.577-.131-8.09-6.06-9.436-10.827-10.517-4.053-.92-7.884-1.79-10.184-5.795-1.704-2.973-3.528-6.335-5.827-8.367C76.119.22 73.115-.334 69.528.814c-2.63.843-4.513 1.64-6.024 2.282-2.27.963-3.519 1.493-5.501 1.493-1.987 0-3.236-.53-5.506-1.493-1.51-.641-3.394-1.439-6.024-2.281-3.587-1.151-6.59-.596-9.185 1.696-2.32 2.05-4.132 5.409-5.83 8.367-2.297 4.004-6.275 4.876-10.49 5.796-4.931 1.078-11.069 2.422-11.2 10.517-.032 2.03.131 3.854.276 5.462.374 4.165.6 6.677-2.257 9.835C3.141 47.62-.01 50.937.001 54.54-.013 58.35 3.66 62.045 7.79 66.604zm3.357-21.075c4.19-4.629 3.811-8.832 3.41-13.281-.14-1.57-.288-3.195-.258-4.985.07-4.327 2.392-5.016 7.637-6.164 4.525-.99 10.157-2.22 13.454-7.969 3.33-5.412 4.828-9.567 9.701-8.006 2.433.781 4.135 1.502 5.637 2.139 2.44 1.033 4.366 1.85 7.273 1.853 2.904 0 4.83-.818 7.27-1.853 1.502-.637 3.204-1.36 5.639-2.14 4.862-1.558 6.319 2.513 9.7 8.008 3.287 5.73 8.733 6.966 13.11 7.959 5.141 1.166 7.228 1.814 7.3 6.173.025 1.527-.041 2.932-.104 4.291-.22 4.706-.428 9.151 3.935 13.975 3.342 3.69 6.62 7.168 6.616 9.008v.011c.004 1.99-3.91 6.027-6.616 9.013-4.366 4.821-4.155 9.266-3.935 13.972.063 1.36.129 2.764.104 4.291-.072 4.36-2.161 5.007-7.3 6.174-4.377.992-9.823 2.23-13.109 7.96l-.305.532c-3.832 6.695-5.406 8.749-9.394 7.474-2.43-.782-4.132-1.502-5.634-2.139-2.44-1.035-4.368-1.853-7.278-1.853-2.909 0-4.837.818-7.277 1.853-1.5.637-3.201 1.357-5.632 2.137-4.853 1.554-6.3-2.481-9.7-8.007-3.287-5.73-8.733-6.967-13.11-7.96-5.141-1.166-7.23-1.812-7.302-6.173-.025-1.527.04-2.93.104-4.289.222-4.708.43-9.153-3.936-13.974-3.05-3.367-6.622-7.114-6.615-9.024-.007-1.98 3.917-6.024 6.615-9.006z" fill="#00485A"/><path d="M48.938 38.75a6.805 6.805 0 00-6.797 6.797 6.805 6.805 0 006.797 6.797 6.805 6.805 0 006.797-6.797 6.805 6.805 0 00-6.797-6.797zm0 9.062a2.266 2.266 0 112.266-2.266 2.268 2.268 0 01-2.266 2.266zM60.266 63.672a6.805 6.805 0 006.797 6.797 6.805 6.805 0 006.797-6.797 6.805 6.805 0 00-6.797-6.797 6.805 6.805 0 00-6.797 6.797zm9.063 0a2.268 2.268 0 01-2.266 2.265 2.266 2.266 0 112.266-2.266zM47.68 70.088a2.267 2.267 0 003.143-.628l18.125-27.187a2.266 2.266 0 10-3.77-2.515L47.053 66.945a2.268 2.268 0 00.627 3.143z" fill="#FFCC34"/><path d="M58 93.125c21.238 0 38.516-17.278 38.516-38.516S79.238 16.093 58 16.093c-21.237 0-38.515 17.278-38.515 38.516S36.763 93.125 58 93.125zm0-72.5c18.74 0 33.985 15.245 33.985 33.984 0 18.74-15.245 33.985-33.984 33.985-18.74 0-33.985-15.246-33.985-33.985 0-18.739 15.245-33.984 33.985-33.984z" fill="#00485A"/><path d="M53.845 30.034a2.266 2.266 0 00-.752-4.468c-12.359 2.08-22.06 11.784-24.138 24.143a2.267 2.267 0 002.236 2.641 2.267 2.267 0 002.232-1.89 24.916 24.916 0 0120.422-20.426z" fill="#fff"/></svg><svg fill="none" viewBox="0 0 114 115" id="advantages-3" xmlns="http://www.w3.org/2000/svg"><path d="M111.465 82.215v-51.14l-1.264-2.987-5.746-1.494H7.233l-5.286 5.631.69 51.024 108.828-1.034z" fill="#fff"/><path d="M100.318 9.356l-5.171-5.861-8.734-1.15v15.86h4.022v15.743h-4.022v16.434l8.734-1.61 5.171-7.239V9.356zM71.933 63.139H61.016L60.21 74.17l-5.63-1.38-11.723-.919-8.044 2.299V61.644L23.207 63.14l-7.47 5.286-7.7 14.71h77.916l-6.665-14.71-7.355-5.286z" fill="#00728F"/><path d="M42.284 82.79l2.528-13.676 6.666-.46 2.183 14.71-11.377-.575zM78.828 50.037V34.293l7.7-.575-.575 16.32h-7.125zM78.828 18.779V3.149l7.7-.804-.575 16.434h-7.125z" fill="#FFCC34"/><path d="M24.471 36.936l6.436-4.137v-3.333l9.423-1.379 7.585-5.401 7.584 5.401 8.505 2.413v3.448l4.481 1.034 3.678 5.861-3.678 5.861-4.481 1.494-8.505 9.194v3.102l-4.941 7.93h-6.206l-4.022-6.436v-2.987l-3.792-3.793-3.907-7.01-5.402-1.494-3.907-3.333 1.15-6.435zM112.5 82.675L1.832 83.48l1.609 7.354 4.942 3.103h41.14v6.78l-25.856 6.666.574 5.056h65.85v-5.631l-24.823-5.171-.92-6.895 42.176-.805 5.286-5.056.69-6.206z" fill="#fff"/><path d="M69.175 14.987L59.062 4.299l-14.02-1.724-13.446 5.402-7.814 13.79v15.744l7.814-4.597v-3.333l5.287-.689 10.917-5.86 9.653 5.86 5.631.69.92 2.528 8.044 5.4V23.032l-2.873-8.044z" fill="#FFCC34"/><path d="M104.807 24.137h-1.839V13.104c0-7.097-5.776-12.87-12.87-12.87H77.225v20.225h11.032v3.678H73.456C72.505 10.8 61.379.233 47.807.233c-13.574 0-24.699 10.568-25.648 23.904H9.194C4.124 24.137 0 28.26 0 33.33v53.323c0 5.07 4.124 9.193 9.194 9.193h38.613v4.03l-25.742 5.516v8.841h69.871v-8.841l-25.742-5.517v-4.029h38.613c5.07 0 9.193-4.123 9.193-9.193V33.33c0-5.068-4.123-9.193-9.193-9.193zm-5.516-11.033v25.742c0 5.07-4.123 9.194-9.194 9.194H88.26V35.169h3.677V16.782h-3.678V3.91h1.84c5.07 0 9.193 4.125 9.193 9.193zM80.904 48.04V35.169h3.677v12.87h-3.677zm0-44.13h3.677v12.872h-3.677V3.91zm7.355 27.581H77.225v20.226h12.871c7.095 0 12.871-5.773 12.871-12.87V27.813h1.839a5.523 5.523 0 015.516 5.516v47.807H87.666l-3.774-9.433c-2.165-5.41-7.086-9.324-12.848-10.21L57 59.335v-.91a18.476 18.476 0 007.662-8.575c4.924-.166 8.886-4.197 8.886-9.162v-12.87h14.71v3.674zM73.218 81.138l-1.542-7.716-3.606.722 1.397 6.991H54.946l-.85-6.796 8.42 1.685V63.9l7.967 1.227a12.92 12.92 0 019.993 7.941l3.227 8.068H73.218zM23.94 73.42l-1.544 7.716H11.911l3.227-8.068a12.921 12.921 0 019.993-7.94l7.966-1.226v12.122l8.42-1.685-.851 6.797H26.145l1.4-6.994-3.605-.722zm29.438-4.829l2.83-5.659 2.631.405v8.203l-5.224-1.044-.237-1.905zm-5.571-11.359c-8.111 0-14.71-6.598-14.71-14.71v-11.1a23.86 23.86 0 0014.71-6.535 23.83 23.83 0 0014.71 6.534v11.102c0 8.11-6.6 14.71-14.71 14.71zm-5.516 2.83a18.383 18.383 0 0011.032 0v.413l-2.974 5.951h-5.082l-2.974-5.95v-.414h-.002zm-2.882 2.868l2.829 5.659L42 70.493l-5.226 1.043v-8.203l2.634-.402zm6.346 7.173h4.109l1.379 11.033h-6.867l1.379-11.033zm20.439-27.58v-7.017c2.135.76 3.677 2.783 3.677 5.178 0 2.517-1.705 4.622-4.012 5.282.216-1.117.335-2.267.335-3.443zM47.807 3.91c12.168 0 22.064 9.897 22.064 22.064v7.404c-1.073-.814-2.312-1.421-3.677-1.7v-3.865h-1.839c-5.438 0-10.55-2.12-14.395-5.962l-2.15-2.156-2.157 2.154a20.221 20.221 0 01-14.392 5.962h-1.839v3.863c-1.365.28-2.604.887-3.677 1.699v-7.401C25.742 13.81 35.64 3.911 47.807 3.911zM29.755 45.967c-2.307-.658-4.013-2.763-4.013-5.282 0-2.395 1.543-4.418 3.678-5.178v7.017c0 1.176.122 2.326.335 3.443zM9.194 27.814h12.871v12.871c0 4.965 3.962 8.996 8.886 9.161a18.487 18.487 0 007.662 8.576v.91l-14.043 2.16c-5.76.888-10.685 4.8-12.848 10.21l-3.774 9.432h-4.27V33.328a5.523 5.523 0 015.516-5.514zm16.548 80.552l22.065-4.728v6.918H25.742v-2.19zm62.516 0v2.19H66.195v-6.918l22.064 4.728zm-25.741 2.19H51.484v-14.71h11.033v14.71zm42.29-18.387H9.194a5.523 5.523 0 01-5.516-5.516v-1.839h106.645v1.839a5.522 5.522 0 01-5.516 5.516z" fill="#00485A"/><path d="M57 37.008a1.839 1.839 0 100-3.678 1.839 1.839 0 000 3.678zM38.613 37.008a1.839 1.839 0 100-3.678 1.839 1.839 0 000 3.678zM55.162 42.523a7.362 7.362 0 01-7.355 7.355 7.362 7.362 0 01-7.355-7.355h-3.677c0 6.084 4.948 11.033 11.032 11.033s11.032-4.949 11.032-11.033h-3.677z" fill="#00485A"/></svg><svg fill="none" viewBox="0 0 114 113" id="advantages-4" xmlns="http://www.w3.org/2000/svg"><ellipse cx="34.639" cy="76.557" rx="5.285" ry="5.17" fill="#00728F"/><ellipse cx="7.294" cy="105.74" rx="5.285" ry="5.17" fill="#00728F"/><ellipse cx="16.37" cy="89.31" rx="4.711" ry="4.596" fill="#00728F"/><ellipse cx="5.341" cy="78.28" rx="4.711" ry="4.596" fill="#00728F"/><ellipse cx="32.915" cy="94.825" rx="4.711" ry="4.596" fill="#00728F"/><path d="M23.595 69.728L8.469 54.258l9.97-1.604L69.085 1.893l7.219 7.104-50.19 50.418-2.52 10.313z" fill="#fff"/><path fill="#FFCC34" d="M59.915 61.965h50.553v40.213H59.915z"/><path fill="#00728F" d="M95.532 71.156h14.017v10.57H95.532z"/><path fill="#fff" d="M58.077 71.386h36.306v8.272H58.077z"/><path d="M105.413 50.705l-7.927-4.825H71.749l-10.8 8.617-2.872 9.651 52.047-.574V60.93l-4.711-10.226zM7.354 55.99l15.238 15.239-3.738 3.737-15.237-15.24zM71.75 1.645h23.576l.028 6.675h-18.09L71.75 1.645z" fill="#FFCC34"/><path fill="#00728F" d="M72.324 38.756h24.128v5.055H72.324z"/><ellipse cx="66.464" cy="104.131" rx="6.549" ry="7.238" fill="#fff"/><ellipse cx="102.771" cy="102.637" rx="8.387" ry="8.732" fill="#fff"/><path d="M104.788 100.34h-3.677v3.676h3.677v-3.676zM68.022 102.178h-3.677v3.677h3.677v-3.677z" fill="#00485A"/><path d="M104.788 30.485c.487 0 .956-.193 1.301-.538l7.353-7.353c.345-.345.538-.812.538-1.3V12.1a1.84 1.84 0 00-.538-1.3l-7.353-7.353a1.837 1.837 0 00-1.301-.538h-7.353V1.072a1.838 1.838 0 00-1.838-1.839H69.86a1.84 1.84 0 00-1.3.538L53.853 14.477 17.506 50.826 7.055 52.566v.032c-.377.051-.726.219-1.002.483L.538 58.597a1.839 1.839 0 000 2.599L17.083 77.74a1.839 1.839 0 002.599 0l5.515-5.514c.264-.276.431-.628.482-1.004h.032l1.742-10.449L63.808 24.43l14.169-14.167h17.622a1.838 1.838 0 001.838-1.838V6.587h6.593l6.275 6.275v7.67l-6.277 6.276H91.92a1.84 1.84 0 00-1.3.538l-8.652 8.653h-10.27a1.838 1.838 0 00-1.838 1.839v6.919a20.24 20.24 0 00-12.868 18.817v40.443a9.191 9.191 0 009.192 9.191 9.192 9.192 0 009.191-9.191h16.71c.996 6.009 6.671 10.076 12.683 9.083 6.009-.995 10.076-6.67 9.083-12.682a11.062 11.062 0 00-1.707-4.324v-32.52a20.241 20.241 0 00-12.868-18.817v-6.92A1.838 1.838 0 0097.437 36H87.168l5.515-5.514h12.105zm-86.4 43.358L4.444 59.897l2.916-2.916 13.946 13.946-2.918 2.916zm6.055-15.246c-.271.271-.45.62-.513.997L22.678 67.1 11.184 55.605l7.507-1.252c.377-.062.726-.242.998-.513l35.465-35.465 4.754 4.754-35.465 35.468zm38.064-38.065l-4.752-4.754L69.863 3.671l4.752 4.754-12.108 12.107zM93.758 6.587H77.974L74.298 2.91h19.46v3.677zm14.707 62.502H60.669v-3.677h47.796v3.677zm-3.677 22.225V89.31a1.837 1.837 0 00-1.838-1.838H66.184a1.838 1.838 0 00-1.838 1.838v5.7a9.086 9.086 0 00-3.677 1.7V80.119h33.09v1.838c0 1.016.822 1.839 1.838 1.839h12.868v8.846a10.936 10.936 0 00-3.677-1.328zm-11.03-14.872h-33.09v-3.676h33.09v3.676zm14.707 3.677h-11.03v-7.353h11.03v7.353zm-42.281 29.413a5.516 5.516 0 010-11.03 5.515 5.515 0 110 11.03zm25.902-9.192h-17.49a9.221 9.221 0 00-6.574-5.33v-3.861h33.09v.165a11.047 11.047 0 00-9.026 9.026zm10.864 9.192a7.354 7.354 0 010-14.707 7.354 7.354 0 010 14.707zm5.414-47.796H60.77c.947-8.37 8.022-14.697 16.444-14.707H91.92c8.424.01 15.497 6.338 16.444 14.707zM95.597 43.704a20.149 20.149 0 00-3.677-.351H77.214a20.148 20.148 0 00-3.677.351v-4.028h22.06v4.028zM11.035 78.28a5.516 5.516 0 00-5.515-5.514A5.516 5.516 0 00.005 78.28a5.515 5.515 0 1011.03 0zm-7.354 0a1.838 1.838 0 113.676 0 1.838 1.838 0 01-3.676 0zM7.358 98.501a7.354 7.354 0 10.001 14.708 7.354 7.354 0 00-.001-14.708zm0 11.03a3.675 3.675 0 01-3.677-3.676 3.676 3.676 0 013.677-3.677 3.676 3.676 0 013.677 3.677 3.675 3.675 0 01-3.677 3.676zM16.55 83.796a5.516 5.516 0 00-5.516 5.515 5.516 5.516 0 005.515 5.515 5.515 5.515 0 100-11.03zm0 7.353a1.838 1.838 0 11-.002-3.675 1.838 1.838 0 01.002 3.675z" fill="#00485A"/><path d="M33.094 89.31a5.516 5.516 0 00-5.515 5.515 5.516 5.516 0 005.515 5.515 5.515 5.515 0 100-11.03zm0 7.353a1.838 1.838 0 110-3.675 1.838 1.838 0 010 3.675zM34.933 69.09a7.354 7.354 0 000 14.706 7.354 7.354 0 000-14.706zm0 11.03a3.676 3.676 0 01-3.677-3.677 3.676 3.676 0 013.677-3.677 3.676 3.676 0 013.676 3.677 3.676 3.676 0 01-3.676 3.676zM22.064 98.501h-3.676v3.677h3.676v-3.677zM29.418 104.017H25.74v3.676h3.677v-3.676z" fill="#00485A"/></svg><svg viewBox="0 0 329.269 329" id="close" xmlns="http://www.w3.org/2000/svg"><path d="M194.8 164.77L323.013 36.555c8.343-8.34 8.343-21.825 0-30.164-8.34-8.34-21.825-8.34-30.164 0L164.633 134.605 36.422 6.391c-8.344-8.34-21.824-8.34-30.164 0-8.344 8.34-8.344 21.824 0 30.164l128.21 128.215L6.259 292.984c-8.344 8.34-8.344 21.825 0 30.164a21.266 21.266 0 0015.082 6.25c5.46 0 10.922-2.09 15.082-6.25l128.21-128.214 128.216 128.214a21.273 21.273 0 0015.082 6.25c5.46 0 10.922-2.09 15.082-6.25 8.343-8.34 8.343-21.824 0-30.164zm0 0"/></svg><svg fill="none" viewBox="0 0 112 107" id="contract-1" xmlns="http://www.w3.org/2000/svg"><path d="M51.64 74.589a2.247 2.247 0 00-1.546-.613c-.576 0-1.14.222-1.547.613a2.055 2.055 0 00-.64 1.477c0 .55.233 1.089.64 1.478a2.257 2.257 0 003.093 0 2.06 2.06 0 00.641-1.478c0-.55-.234-1.089-.64-1.477z" fill="#00485A"/><path d="M17.5 52l9-3.5L35 56l7-7.5 9.5 3L56 57v12H14v-9l3.5-8z" fill="#00728F"/><rect x="26" y="26" width="18" height="10" rx="2" fill="#FFCC34"/><path d="M71.041 2h28.918C105.496 2 110 6.252 110 11.478v20.283c0 5.226-4.504 9.478-10.041 9.478H79.905l-6.574 6.206a2.07 2.07 0 01-1.42.555c-.259 0-.52-.047-.768-.144-.75-.294-1.24-.985-1.24-1.752V41.18C64.9 40.644 61 36.624 61 31.76V11.478C61 6.252 65.504 2 71.041 2z" fill="#FFCC34"/><path d="M98 56.01c-1.208 0-2.188.935-2.188 2.09v9.19H58.188v-5.158c0-7.947-6.255-14.52-14.308-15.473 1.592-1.876 2.548-4.264 2.548-6.861V25.096c0-1.154-.98-2.09-2.188-2.09H32.795c-5.085 0-9.222 3.952-9.222 8.81v7.982c0 2.597.956 4.984 2.547 6.861-8.053.953-14.308 7.526-14.308 15.473v5.159H4.375V17.083c0-.894.766-1.62 1.707-1.62h45.47c1.208 0 2.188-.936 2.188-2.09s-.98-2.09-2.188-2.09H6.082C2.73 11.283 0 13.885 0 17.083v61.962c0 3.199 2.729 5.8 6.082 5.8h33.289V94.5c-5.519.534-9.84 4.999-9.84 10.409 0 1.154.98 2.09 2.188 2.09h36.75c1.208 0 2.187-.936 2.187-2.09 0-5.41-4.32-9.875-9.839-10.409v-9.654h33.288c3.354 0 6.083-2.601 6.083-5.8V58.1c-.001-1.154-.98-2.09-2.188-2.09zM27.948 31.817c0-2.554 2.174-4.631 4.847-4.631h9.258v3.337c0 1.657-1.412 3.006-3.147 3.006H27.948v-1.712zm0 5.892h10.958a7.767 7.767 0 003.147-.662v2.751c0 3.715-3.164 6.738-7.053 6.738s-7.052-3.023-7.052-6.738v-2.09zm9.605 13.006L35 53.155l-2.553-2.44h5.106zM16.188 62.133c0-5.727 4.438-10.482 10.201-11.293l7.064 6.748c.427.408.987.612 1.547.612.56 0 1.12-.203 1.547-.612l7.063-6.748c5.764.81 10.203 5.566 10.203 11.293v5.159H16.187v-5.159zm49.719 40.686H34.28c.904-2.44 3.342-4.193 6.202-4.193h19.223c2.86 0 5.299 1.753 6.202 4.193zm-22.161-8.373v-9.6h12.696v9.6H43.746zm52.066-15.4c0 .894-.765 1.62-1.707 1.62H6.082c-.941 0-1.707-.726-1.707-1.62V71.47h91.438v7.575zM99.546 48.75a2.256 2.256 0 00-3.093 0c-.406.39-.64.928-.64 1.477 0 .552.233 1.09.64 1.478.407.39.972.612 1.547.612s1.14-.221 1.546-.612c.407-.389.642-.926.642-1.478 0-.55-.235-1.088-.642-1.477zM98 9.825H81.594c-1.208 0-2.188.935-2.188 2.09 0 1.154.98 2.09 2.188 2.09H98c1.208 0 2.188-.936 2.188-2.09 0-1.155-.98-2.09-2.188-2.09zM74.171 10.437a2.256 2.256 0 00-3.093 0 2.06 2.06 0 00-.64 1.477c0 .55.233 1.09.64 1.478a2.258 2.258 0 003.093 0 2.06 2.06 0 00.641-1.478c0-.55-.234-1.088-.64-1.477zM98 19.02H72.625c-1.208 0-2.188.935-2.188 2.09 0 1.154.98 2.09 2.188 2.09H98c1.208 0 2.188-.936 2.188-2.09 0-1.155-.98-2.09-2.188-2.09z" fill="#00485A"/><path d="M98 28.215H72.625c-1.208 0-2.188.936-2.188 2.09s.98 2.09 2.188 2.09H98c1.208 0 2.188-.936 2.188-2.09s-.98-2.09-2.188-2.09z" fill="#00485A"/><path d="M101.062.002h-31.5c-6.03 0-10.937 4.688-10.937 10.45v22.36c0 5.362 4.248 9.794 9.698 10.383v5.43c0 .846.533 1.608 1.35 1.932a2.272 2.272 0 002.384-.453l7.161-6.842h21.844c6.031 0 10.938-4.688 10.938-10.45v-22.36c0-5.762-4.907-10.45-10.938-10.45zm6.563 32.81c0 3.458-2.944 6.27-6.563 6.27h-22.75c-.58 0-1.136.22-1.546.612l-4.068 3.887v-2.409c0-1.154-.98-2.09-2.188-2.09h-.948c-3.618 0-6.562-2.812-6.562-6.27v-22.36c0-3.458 2.944-6.27 6.563-6.27h31.499c3.619 0 6.563 2.812 6.563 6.27v22.36z" fill="#00485A"/></svg><svg fill="none" viewBox="0 0 113 113" id="contract-2" xmlns="http://www.w3.org/2000/svg"><path d="M41.715 25.874l8.977-4.752h11.089l10.032 4.752 5.28 10.56v14.258L56.5 41.187l-21.65 8.977v-13.73l6.865-10.56z" fill="#FFCC34"/><path d="M27.83 83.764a6 6 0 014.887-3.986l13.736-1.807a6 6 0 014.688 1.393l1.295 1.11a6 6 0 007.987-.159l1.297-1.203a6 6 0 015.096-1.517l12.38 2.122a6 6 0 014.477 3.497l4.51 10.249c.727 1.455-.331 3.168-1.958 3.168H51.454a6 6 0 01-4.07-1.591l-1.35-1.247a6 6 0 00-7.818-.276l-1.537 1.229a6 6 0 01-5.275 1.117l-.853-.225a6 6 0 01-4.143-7.765l1.422-4.109z" fill="#00728F"/><path d="M91.704 98.42l-4.219-12.66a12.758 12.758 0 00-9.822-8.517l-12.18-2.217v-.944a18.34 18.34 0 005.433-4.824h3.68a5.474 5.474 0 005.468-5.468V41.92c0-13.065-10.63-23.694-23.694-23.694-13.064 0-23.694 10.629-23.694 23.693v12.758c0 3.514 2.5 6.454 5.813 7.14 1.022 5.238 4.295 9.67 8.768 12.265v.944l-12.182 2.217a12.756 12.756 0 00-9.82 8.517l-.73 2.188-6.207-6.207a1.826 1.826 0 010-2.58l7.2-7.197-13.513-13.512-8.136 8.136A12.675 12.675 0 00.132 75.61a12.67 12.67 0 003.737 9.02L28.5 109.262A12.678 12.678 0 0037.523 113c3.408 0 6.61-1.329 8.963-3.684l8.878-8.134-2.769-2.763h39.11zM76.418 63.79a1.824 1.824 0 01-1.822 1.823h-1.533c.528-1.205.93-2.475 1.188-3.797.78-.162 1.498-.472 2.167-.862v2.836zm-1.822-5.974v-6.277c1.084.632 1.822 1.795 1.822 3.138s-.738 2.506-1.822 3.139zm-36.452 0c-1.084-.633-1.822-1.796-1.822-3.139 0-1.343.738-2.506 1.822-3.138v6.277zm0-12.252v2.082a7.233 7.233 0 00-1.822.754v-6.48c0-11.055 8.994-20.05 20.048-20.05 11.054 0 20.048 8.995 20.048 20.05v6.48a7.166 7.166 0 00-1.822-.754v-2.082h-1.823c-5.39 0-10.456-2.1-14.269-5.91l-2.134-2.135-2.134 2.135a20.053 20.053 0 01-14.27 5.91h-1.822zm3.645 12.758V49.14a23.63 23.63 0 0014.58-6.477 23.62 23.62 0 0014.582 6.477v9.182c0 2.658-.726 5.144-1.972 7.29h-12.61v3.646h9.613c-2.57 2.262-5.929 3.645-9.612 3.645-8.04 0-14.58-6.541-14.58-14.58zm20.049 17.386v.086l-5.468 5.468-5.468-5.468v-.086a18.2 18.2 0 0010.936 0zM28.71 86.912a9.116 9.116 0 017.016-6.086l12.74-2.315 7.904 7.905 7.903-7.903 12.738 2.315a9.113 9.113 0 017.015 6.085l2.623 7.861H48.95l-7.099-7.099-7.888 7.136c-.687.69-1.888.69-2.577 0l-3.98-3.981 1.304-3.918zM12.003 63.606l8.358 8.358-1.98 1.98-8.357-8.359 1.979-1.979zm31.959 43.082a9.067 9.067 0 01-6.443 2.667 9.065 9.065 0 01-6.445-2.67L6.442 82.055a9.054 9.054 0 01-2.668-6.444c0-2.434.948-4.724 2.668-6.444l1.003-1.003 8.358 8.359-.066.065a5.477 5.477 0 000 7.734l13.07 13.07a5.44 5.44 0 003.868 1.601c1.461 0 2.834-.568 3.8-1.538l.136-.122 8.397 8.397-1.046.958zm3.736-3.426l-8.378-8.379 2.407-2.176 8.364 8.364-2.393 2.191zM107.402 0H81.886a5.474 5.474 0 00-5.468 5.468v14.58a5.474 5.474 0 005.468 5.468h4.868L84.87 36.508l17.588-10.992h4.945a5.474 5.474 0 005.468-5.468V5.468A5.474 5.474 0 00107.402 0zm1.823 20.048a1.826 1.826 0 01-1.823 1.823h-5.991l-11.575 7.234 1.241-7.234h-9.191a1.826 1.826 0 01-1.823-1.823V5.468c0-1.005.819-1.823 1.823-1.823h25.516c1.004 0 1.823.818 1.823 1.823v14.58z" fill="#00485A"/><path d="M105.579 7.29h-21.87v3.645h21.87V7.29zM98.29 14.58H83.707v3.646H98.29V14.58zM105.579 14.58h-3.645v3.646h3.645V14.58zM63.194 56.687a1.942 1.942 0 100-3.883 1.942 1.942 0 000 3.883zM49.465 56.687a1.942 1.942 0 100-3.883 1.942 1.942 0 000 3.883z" fill="#00485A"/></svg><svg fill="none" viewBox="0 0 108 108" id="contract-3" xmlns="http://www.w3.org/2000/svg"><g clip-path="url(#hclip0)"><path d="M106 103.129a1.873 1.873 0 01-1.875 1.871h-41.25A1.873 1.873 0 0161 103.129V48.871c0-1.033.84-1.87 1.875-1.87h41.25c1.036 0 1.875.837 1.875 1.87v54.258z" fill="#00728F"/><path fill="#FFCC34" d="M15 30h45v7H15z"/><path d="M71.334 67h23.333C96.507 67 98 65.657 98 64v-6c0-1.657-1.492-3-3.333-3H71.333C69.493 55 68 56.343 68 58v6c0 1.657 1.493 3 3.334 3z" fill="#EFEFEE"/><path d="M48.6 62.1a1.8 1.8 0 003.6 0c0-5.954-5.508-10.876-12.6-11.6v-1.9a1.8 1.8 0 00-3.6 0v1.9c-7.091.72-12.6 5.646-12.6 11.6S28.91 72.976 36 73.7v16.178c-5.099-.645-9-3.973-9-7.978a1.8 1.8 0 00-3.6 0c0 5.954 5.509 10.876 12.6 11.6v1.9a1.8 1.8 0 003.6 0v-1.9c7.093-.72 12.6-5.646 12.6-11.6s-5.508-10.876-12.6-11.6V54.123c5.1.645 9 3.973 9 7.978zm-21.6 0c0-4.005 3.901-7.333 9-7.978v15.956c-5.099-.645-9-3.973-9-7.978zm21.6 19.8c0 4.005-3.9 7.333-9 7.978V73.922c5.1.645 9 3.973 9 7.978z" fill="#00485A"/><path d="M6.48 54.312a1.8 1.8 0 00-2.39.874A43.92 43.92 0 000 73.8C0 96.493 12.717 108 37.8 108a58.206 58.206 0 0015.043-1.733 1.801 1.801 0 00-.925-3.48A55.445 55.445 0 0137.8 104.4c-23.013 0-34.2-10.01-34.2-30.6a39.805 39.805 0 013.757-17.1 1.8 1.8 0 00-.877-2.389zM102.6 45H63a5.4 5.4 0 00-5.4 5.4v52.2A5.4 5.4 0 0063 108h39.6a5.4 5.4 0 005.4-5.4V50.4a5.4 5.4 0 00-5.4-5.4zm1.8 57.6a1.8 1.8 0 01-1.8 1.8H63a1.8 1.8 0 01-1.8-1.8V50.4a1.8 1.8 0 011.8-1.8h39.6a1.8 1.8 0 011.8 1.8v52.2z" fill="#00485A"/><path d="M70.2 68.4h25.2a3.6 3.6 0 003.6-3.6v-7.2a3.6 3.6 0 00-3.6-3.6H70.2a3.6 3.6 0 00-3.6 3.6v7.2a3.6 3.6 0 003.6 3.6zm0-10.8h25.2v7.2H70.2v-7.2zM73.8 73.8h-5.4a1.8 1.8 0 000 3.6h5.4a1.8 1.8 0 000-3.6zM73.8 81h-5.4a1.8 1.8 0 000 3.6h5.4a1.8 1.8 0 000-3.6zM73.8 88.2h-5.4a1.8 1.8 0 000 3.6h5.4a1.8 1.8 0 000-3.6zM73.8 95.4h-5.4a1.8 1.8 0 100 3.6h5.4a1.8 1.8 0 100-3.6zM86.4 73.8H81a1.8 1.8 0 100 3.6h5.4a1.8 1.8 0 000-3.6zM86.4 81H81a1.8 1.8 0 100 3.6h5.4a1.8 1.8 0 000-3.6zM86.4 88.2H81a1.8 1.8 0 100 3.6h5.4a1.8 1.8 0 000-3.6zM86.4 95.4H81a1.8 1.8 0 100 3.6h5.4a1.8 1.8 0 100-3.6zM99 73.8h-5.4a1.8 1.8 0 000 3.6H99a1.8 1.8 0 100-3.6zM99 81h-5.4a1.8 1.8 0 000 3.6H99a1.8 1.8 0 100-3.6zM99 88.2h-5.4a1.8 1.8 0 000 3.6H99a1.8 1.8 0 100-3.6zM99 95.4h-5.4a1.8 1.8 0 100 3.6H99a1.8 1.8 0 100-3.6zM11.385 2.273C6.645 6.615 14.972 20.007 19.879 27H18.9a6.268 6.268 0 00-4.459 1.84A6.345 6.345 0 0012.6 33.3a6.28 6.28 0 003.157 5.427 84.771 84.771 0 00-5.929 6.993 1.8 1.8 0 002.88 2.16 86.979 86.979 0 017.2-8.28H56.7a6.3 6.3 0 000-12.6h-.98c4.906-6.993 13.233-20.383 8.497-24.727-2.178-1.994-4.716-.54-6.954.733A13.884 13.884 0 0150.4 5.4a6.973 6.973 0 01-5.132-2.268 10.478 10.478 0 00-14.94 0 6.973 6.973 0 01-5.14 2.268 13.826 13.826 0 01-6.859-2.394c-2.235-1.276-4.771-2.725-6.944-.733zm47.228 29.115A2.7 2.7 0 0156.7 36H18.9a2.7 2.7 0 110-5.4h37.8c.717 0 1.404.284 1.913.788zM25.187 9c2.81 0 5.503-1.13 7.472-3.134a6.937 6.937 0 0110.26 0A10.485 10.485 0 0050.4 9a17.246 17.246 0 008.656-2.87 7.528 7.528 0 012.734-1.203C63.637 6.619 58.756 16.823 51.293 27H46.8v-9a1.8 1.8 0 00-3.6 0v9H32.4v-9a1.8 1.8 0 00-3.6 0v9h-4.486C16.852 16.823 11.97 6.619 13.842 4.9a8.936 8.936 0 012.7 1.23A17.21 17.21 0 0025.187 9z" fill="#00485A"/></g><defs><clipPath id="hclip0"><path fill="#fff" d="M0 0h108v108H0z"/></clipPath></defs></svg><svg fill="none" viewBox="0 0 106 106" id="contract-4" xmlns="http://www.w3.org/2000/svg"><g clip-path="url(#iclip0)"><path fill="#00728F" d="M41.976 58.913L28.71 82.43 20 77.516 33.266 54z"/><path d="M41 62.485L57.5 63l-2 11.5 2.5 2 6.5-4 23 13.5-2 5H81l-3 4.5-5.5 5L66 99l-3.5 5.5L57 101l-.5-4-3.5-3-2-6-3.5-1-3.5-4-4.5 1.5-9-4L41 62.485z" fill="#FFCC34"/><path d="M63 3l9.5 8 7.5 8-15.5-.5L63 3z" fill="#00728F"/><path d="M69.346 28.53H18.584a1.56 1.56 0 100 3.118h50.762a1.56 1.56 0 100-3.119zM18.584 20.832h25.38a1.56 1.56 0 100-3.12h-25.38a1.56 1.56 0 100 3.12zM69.346 38.114H18.584a1.56 1.56 0 100 3.118h50.762a1.56 1.56 0 100-3.118z" fill="#00485A"/><path d="M30.147 95.166H13.902a4.841 4.841 0 01-4.836-4.836V7.954a4.841 4.841 0 014.836-4.835h46.8c.152 0 .3.013.448.033v9.725c0 4.386 3.568 7.955 7.954 7.955h9.725c.02.147.034.296.034.447v26.554a1.56 1.56 0 103.118 0V21.28c0-1.71-.666-3.318-1.875-4.528L65.23 1.876A6.362 6.362 0 0060.703 0H13.902C9.516 0 5.948 3.568 5.948 7.954V90.33c0 4.386 3.568 7.954 7.954 7.954h16.245a1.56 1.56 0 100-3.118zm46.51-77.453h-7.553a4.842 4.842 0 01-4.835-4.836V5.324l12.389 12.39z" fill="#00485A"/><path d="M99.573 76.338l-13.212-22.3a3.418 3.418 0 00-4.685-1.2l-3.214 1.903c-2.495 1.478-3.549 4.469-2.693 7.119a4.78 4.78 0 01-3.363-.036c-2.537-.799-4.466-2.405-7.652-1.599-5.41 1.377-5.245 1.308-5.735 1.476-3.167-1.803-5.071-2.34-8.434-1.04l-2.997 1.16a4.796 4.796 0 01-4.2-.351l-.818-.482a6.092 6.092 0 00-2.907-6.246l-3.214-1.904a3.424 3.424 0 00-4.685 1.2l-13.213 22.3a3.418 3.418 0 001.2 4.686l3.213 1.904c.973.576 2.041.85 3.097.85a6.137 6.137 0 003.331-.984l.67.395-1.414 1.97a5.226 5.226 0 005.058 8.21 5.212 5.212 0 002.101 3.366 5.182 5.182 0 003.86.916 5.222 5.222 0 007.213 3.922 5.203 5.203 0 001.825 2.363 5.233 5.233 0 007.059-.894l3.758 2.226a5.226 5.226 0 007.164-1.834c.377-.636.61-1.329.696-2.041l.009.005a5.236 5.236 0 007.164-1.834 5.202 5.202 0 00.716-2.28 5.24 5.24 0 005.778-2.405 5.2 5.2 0 00.701-2.117c2.344.92 5.084.031 6.407-2.203a5.196 5.196 0 00.568-3.962 5.207 5.207 0 00-1.063-2.071l2.07-1.21a6.083 6.083 0 005.428-.389l3.213-1.903a3.417 3.417 0 001.2-4.686zm-75.02 3.907L21.34 78.34a.302.302 0 01-.105-.413l13.212-22.302a.302.302 0 01.413-.105l3.213 1.903a2.977 2.977 0 011.044 4.08L28.633 79.2a2.98 2.98 0 01-4.08 1.044zm7.111 9.677a2.109 2.109 0 01-.483-2.945l2.079-2.895a2.116 2.116 0 012.944-.483c.945.678 1.162 1.999.484 2.944l-2.079 2.895c-.678.946-2 1.162-2.945.484zm5.962 4.28a2.113 2.113 0 01-.484-2.945l2.079-2.895 2.294-3.195a2.096 2.096 0 011.718-.88c.438 0 .863.136 1.226.396.458.33.76.816.851 1.372a2.095 2.095 0 01-.368 1.573l-4.372 6.09a2.108 2.108 0 01-2.944.484zm5.961 4.28a2.112 2.112 0 01-.484-2.944v-.001l4.373-6.09c.678-.945 2-1.162 2.944-.484.945.678 1.162 2 .484 2.945l-1.943 2.706-2.43 3.384a2.112 2.112 0 01-2.944.483zm6.937 2.92a2.112 2.112 0 01-.485-2.943l1.455-2.026c.679-.946 2-1.162 2.945-.484.945.678 1.162 2 .483 2.945l-1.454 2.024a2.11 2.11 0 01-2.944.484zm34.95-12.433a2.113 2.113 0 01-2.89.74c-1.697-1.004-12.637-7.485-13.804-8.177a1.56 1.56 0 10-1.59 2.683l10.436 6.183a2.11 2.11 0 11-2.152 3.632l-10.44-6.185a1.56 1.56 0 10-1.59 2.683l7.688 4.555h.002a2.11 2.11 0 11-2.154 3.633l-4.126-2.445h-.001l-.002-.001-3.011-1.785a1.559 1.559 0 10-1.59 2.683l3.012 1.785h.001a2.11 2.11 0 01.74 2.892 2.114 2.114 0 01-2.892.741l-3.513-2.082a5.234 5.234 0 00-1.34-7.088 5.197 5.197 0 00-2.172-.905 5.237 5.237 0 00-1.847-6.08 5.209 5.209 0 00-3.858-.915 5.191 5.191 0 00-2.103-3.365 5.237 5.237 0 00-6.766.57 5.196 5.196 0 00-1.49-1.654 5.237 5.237 0 00-5.78-.211l-.714-.422 9.807-16.554.467.275a7.895 7.895 0 006.91.575l2.997-1.16c1.716-.662 2.661-.705 4.358.095a6.98 6.98 0 00-1.769 4.65v6.913a3.336 3.336 0 003.328 3.333h.004a6.85 6.85 0 004.874-2.018 6.869 6.869 0 001.655-2.65L84.735 86.08c.485.287.83.746.969 1.292.14.546.058 1.113-.23 1.599zm11.31-10.628l-3.213 1.904a2.981 2.981 0 01-4.08-1.044l-4.913-8.295a1.56 1.56 0 00-2.684 1.59l4.915 8.294c.092.156.192.305.297.45l-1.367.798a7.884 7.884 0 00-.796.539L63.76 70.032c-1.038-.614-2.353.135-2.353 1.342-.017.093.16 1.696-1.107 2.963a3.751 3.751 0 01-2.669 1.105h-.002a.213.213 0 01-.212-.214v-6.914a3.88 3.88 0 012.923-3.756l5.18-1.31c1.879-.475 2.941.528 5.755 1.48a7.882 7.882 0 005.962-.096l.941 1.59a1.56 1.56 0 102.684-1.59l-1.854-3.129a2.976 2.976 0 011.044-4.08l3.214-1.903a.3.3 0 01.413.106L96.89 77.928a.3.3 0 01-.105.413z" fill="#00485A"/></g><defs><clipPath id="iclip0"><path fill="#fff" d="M0 0h106v106H0z"/></clipPath></defs></svg><svg fill="none" viewBox="0 0 82 82" id="guarantee-1" xmlns="http://www.w3.org/2000/svg"><path fill="#FFCC34" d="M55.748 32.186h20.527v14.173H55.748zM41.087 20.456h8.797v29.813h-8.797z"/><path fill="#fff" d="M17.629 18.012H36.69v5.865H17.629zM25.45 24.855h5.865v7.331H25.45zM20.073 33.652h15.639v12.707H20.073zM15.674 47.824h64.512v31.767H15.674z"/><path d="M9.81 74.705V42.449h21.014v24.78H25.53V47.405H20.4v26.544l-10.592.756zM39.133 47.824h12.218v17.594H39.133zM53.795 47.336h26.391v21.993H53.795z" fill="#00728F"/><path fill="#FFCC34" d="M1.433 41.356h8.106v31.747H1.433zM12.409 18.897h5.235v3.884h-5.235zM22.711 1.673h45.763v4.391H22.711zM62.901 20.586h7.261v4.391h-7.261z"/><path fill="#fff" d="M62.901 38.994h7.261v7.599h-7.261zM22.54 6.908h45.932v5.741H22.54V6.908z"/><path d="M42.13 12.65h8.105v7.936H42.13V12.65z" fill="#00728F"/><path d="M62.564 25.99h8.106v5.066h-8.106V25.99z" fill="#fff"/><path d="M79.706 45.931h-1.35v-1.827a7.162 7.162 0 00-.947-3.576c.624-1.09.95-2.322.946-3.577v-.159a6.928 6.928 0 00-6.754-7.072v-6.754a4.054 4.054 0 00-4.053-4.053h-2.702a4.054 4.054 0 00-4.053 4.053v6.754a6.928 6.928 0 00-6.754 7.072v.16a7.16 7.16 0 00.945 3.576 7.16 7.16 0 00-.945 3.576v1.827h-2.702V13.51h17.562a1.35 1.35 0 001.35-1.35V1.35A1.35 1.35 0 0068.9 0H22.967a1.35 1.35 0 00-1.35 1.35v10.808c0 .747.604 1.351 1.35 1.351H40.53v32.422h-2.702v-9.456a5.404 5.404 0 00-5.403-5.404v-5.404h1.35a4.054 4.054 0 004.053-4.052v-1.351a4.054 4.054 0 00-4.052-4.053H17.564c-.063.009-.125.02-.186.037a.987.987 0 00-.142 0L11.832 17.6a1.352 1.352 0 00-1.023 1.314v4.053c0 .62.422 1.16 1.023 1.31l5.404 1.351c.108.027.218.04.328.04h1.35v2.143l-2.306 2.307a1.35 1.35 0 101.876 1.944c.012-.01.022-.022.034-.034l2.702-2.702c.253-.253.395-.596.395-.956v-2.701h2.702v5.403a5.404 5.404 0 00-5.404 5.404v4.053H1.35A1.35 1.35 0 000 41.878v32.423a1.35 1.35 0 001.35 1.35h12.16v4.053a1.35 1.35 0 001.35 1.351h64.844a1.35 1.35 0 001.351-1.35V47.281a1.348 1.348 0 00-1.349-1.35zM16.213 22.586l-2.702-.676v-1.942l2.702-.675v3.293zM8.107 72.95H2.704v-2.702h1.35a1.35 1.35 0 100-2.702h-1.35v-2.702h1.35a1.35 1.35 0 100-2.702h-1.35v-2.701h1.35a1.35 1.35 0 100-2.702h-1.35v-2.702h1.35a1.35 1.35 0 100-2.702h-1.35v-2.702h1.35a1.35 1.35 0 100-2.702h-1.35V43.23h5.403v29.72zm55.388-49.984c0-.747.605-1.351 1.351-1.351h2.702c.746 0 1.35.604 1.35 1.35v1.352h-5.403v-1.351zm0 4.052h5.404v2.702h-5.404v-2.702zM56.74 44.103a4.52 4.52 0 01.946-2.758 1.353 1.353 0 000-1.638 4.52 4.52 0 01-.946-2.758v-.158a4.225 4.225 0 014.053-4.37h10.808a4.225 4.225 0 014.052 4.37v.158a4.52 4.52 0 01-.945 2.758 1.353 1.353 0 000 1.638c.611.789.944 1.76.945 2.758v1.827h-4.052v-4.053a5.404 5.404 0 00-10.808 0v4.053H56.74v-1.827zM68.9 41.879v4.052h-5.404V41.88a2.701 2.701 0 115.404 0zM24.319 2.702h43.229v2.702h-43.23V2.702zm0 8.105V8.106h43.229v2.701h-43.23zm18.912 8.106v-5.404h5.404v5.404H43.23zm5.404 2.702V45.93H43.23V21.615h5.404zm-8.106 27.018h10.808v14.185a2.026 2.026 0 11-4.053 0V52.686a1.35 1.35 0 10-2.702 0v10.132a2.026 2.026 0 01-2.51 1.972 2.159 2.159 0 01-1.543-2.146v-14.01zM18.915 22.966v-4.053h14.86c.746 0 1.35.604 1.35 1.35v1.352a1.35 1.35 0 01-1.35 1.35h-14.86zm10.807 2.701v5.404H27.02v-5.404h2.702zm-8.106 10.808a2.701 2.701 0 012.702-2.702h8.106a2.701 2.701 0 012.702 2.702v9.456h-2.702V41.88a1.35 1.35 0 00-1.351-1.351h-9.457v-4.053zM10.81 72.95V43.23h18.913v22.965H27.02V47.282a1.35 1.35 0 00-1.35-1.35h-5.405a1.35 1.35 0 00-1.35 1.35V72.95h-8.106zm67.546 5.403H16.213v-2.701h4.052a1.35 1.35 0 001.351-1.351V48.633h2.702v18.913c0 .746.605 1.351 1.351 1.351h5.404a1.35 1.35 0 001.35-1.35V48.632h5.404v14.011a4.85 4.85 0 003.66 4.784 4.74 4.74 0 004.41-1.267l.036-.037a4.685 4.685 0 005.422.946 4.718 4.718 0 008.052 3.146l.037-.039a4.719 4.719 0 006.675.08l.08-.08a4.719 4.719 0 006.675.08l.08-.08a4.668 4.668 0 005.403.946v7.23h-.002zm0-11.482a2.026 2.026 0 11-4.053 0V56.739a1.35 1.35 0 10-2.701 0V66.87a2.026 2.026 0 11-4.053 0V56.739a1.35 1.35 0 10-2.702 0V66.87a2.026 2.026 0 11-4.053 0V56.739a1.35 1.35 0 10-2.702 0V66.87a2.026 2.026 0 11-4.052 0V48.633h24.316v18.238z" fill="#00485A"/></svg><svg fill="none" viewBox="0 0 88 88" id="guarantee-2" xmlns="http://www.w3.org/2000/svg"><path d="M69.89 67.38l3.043-5.968 4.212.468 5.382 4.095 2.809 6.202v13.456h-43.88V70.656l4.681-6.904 7.489-2.808 2.223 6.903 6.319-3.042 7.722 2.574zM30.224 44.562l3.042-5.968 4.213.468 5.382 4.096 2.808 6.201v13.457H1.791V47.838l4.68-6.903 7.489-2.809 2.223 6.904 6.318-3.042 7.723 2.574z" fill="#00728F"/><path d="M15.481 14.374l3.16-2.106 5.616 3.159 8.073 2.223 1.288 6.67-2.34 7.956-2.575 2.574.351 3.043 4.564 1.053-2.575 6.084-8.073-3.042-6.202 3.042-2.574-6.084 4.212-1.053 1.17-3.862-4.914-4.095-.468-10.765 1.287-4.797zM53.977 37.308l3.394-2.926 3.159 2.224 9.478 1.287 3.159 2.691 5.148 2.808-.819 4.68-4.095 1.288-5.148 7.722.35 3.043 3.979 1.17-2.106 6.201-7.02-2.691-7.022 2.691-3.042-6.201 5.032-2.224v-1.755l-5.032-7.02-5.616-3.861v-2.458l2.223-2.34 3.393-.702.585-3.627zM24.14 57.433v-5.617h8.191v5.617h-8.19zM63.222 80.367v-5.5l8.542-.468v5.968h-8.542z" fill="#fff"/><path d="M15.833 13.086l3.978-1.99 2.809 3.862 5.616.702 4.798 2.457.468 8.074-1.99 6.202h3.277l4.446-2.809-.468-18.487-5.265-6.904-9.01-2.574L13.96 4.661 8.578 12.15v17.434l6.319 2.809-.351-15.797 1.287-3.51zM49.883 29.584l6.552-3.393h.703l6.084-2.457 2.457 1.287 5.5 1.17 5.733 4.564 2.34 7.371-1.755 3.745-4.797-1.756-1.521-1.989L61.7 36.84l-4.563-2.574-3.979 6.904-4.095.702-1.521-5.032 2.34-7.255z" fill="#FFCC34"/><path d="M15.833 13.086l3.978-1.99 2.809 3.862 5.616.702 4.798 2.457.468 8.074-1.99 6.202h3.277l4.446-2.809-.468-18.487-5.265-6.904-9.01-2.574L13.96 4.661 8.578 12.15v17.434l6.319 2.809-.351-15.797 1.287-3.51zM49.883 29.584l6.552-3.393h.703l6.084-2.457 2.457 1.287 5.5 1.17 5.733 4.564 2.34 7.371-1.755 3.745-4.797-1.756-1.521-1.989L61.7 36.84l-4.563-2.574-3.979 6.904-4.095.702-1.521-5.032 2.34-7.255z" stroke="#000"/><path d="M80.41 62.224a14.816 14.816 0 00-5.819-2.303l-4.731-.789-.644-1.933a11.251 11.251 0 004.826-6.648h.372a5.624 5.624 0 005.616-5.617c0-1.03-.3-1.982-.786-2.813.51-1.357.786-2.766.786-4.208 0-7.647-4.683-12.634-12.857-13.77a5.595 5.595 0 00-3.992-1.675h-.44a7.945 7.945 0 00-5.228 1.964c-7.21 1.547-11.182 6.316-11.182 13.482 0 1.441.274 2.85.784 4.207a5.569 5.569 0 00-.784 2.813c0 .485.082.946.197 1.395a14.85 14.85 0 00-11.25-8.877l-4.731-.788-.644-1.933c.485-.309.94-.655 1.367-1.032h1.261c2.935 0 5.696-1.142 7.774-3.22l.412-.412V16.849C40.717 7.56 33.158 0 23.867 0 14.578 0 7.019 7.559 7.019 16.85v13.217l.412.412a10.91 10.91 0 007.774 3.22h1.262c.43.377.884.723 1.366 1.032l-.643 1.933-4.732.788a14.802 14.802 0 00-5.818 2.303A14.88 14.88 0 000 52.158V64.59h43.2a14.872 14.872 0 00-3.885 10.035v12.431h47.74v-12.43a14.9 14.9 0 00-6.646-12.401zm-9.565-.08l-1.416 3.435-3.41-1.364 3.136-2.352 1.69.28zm-13.646-.28l3.136 2.351-3.41 1.364-1.415-3.435 1.69-.28zm9.941-2.002l-3.964 2.972-3.964-2.974.482-1.449c1.097.36 2.265.562 3.482.562 1.215 0 2.385-.201 3.482-.56l.482 1.45zm4.463-12.12c0 4.648-3.78 8.425-8.425 8.425-4.647 0-8.424-3.777-8.424-8.425v-6.894c0-1.879.915-3.59 2.433-4.629a7.982 7.982 0 004.887 2.193l6.962.58a2.785 2.785 0 012.567 2.797v5.953zm2.808 0v-5.616a2.81 2.81 0 012.808 2.808 2.812 2.812 0 01-2.808 2.808zM62.738 25.277h.44a2.81 2.81 0 012.809 2.808 2.81 2.81 0 01-2.809 2.808H60.37V33.7h2.808a5.624 5.624 0 005.617-5.616c0-.272-.045-.536-.08-.798 6.941 1.682 8.504 6.587 8.504 10.627 0 .695-.084 1.38-.24 2.054-.773-.4-1.639-.65-2.568-.65h-.587a5.55 5.55 0 00-4.556-3.124l-6.962-.58a5.143 5.143 0 01-4.744-5.159 5.182 5.182 0 015.176-5.178zm-7.643 2.864a7.954 7.954 0 00-.344 2.312c0 1.252.281 2.436.789 3.49a8.345 8.345 0 00-3.443 5.375h-.154c-.929 0-1.795.248-2.567.65a9.047 9.047 0 01-.241-2.055c.002-3.42 1.137-7.605 5.96-9.772zm-3.15 13.985v5.616a2.81 2.81 0 01-2.808-2.808 2.81 2.81 0 012.808-2.808zm0 8.425h.37a11.244 11.244 0 004.826 6.648l-.644 1.933-4.732.789a14.8 14.8 0 00-4.032 1.299v-9.06c0-1.64-.292-3.231-.798-4.74.92 1.846 2.808 3.13 5.01 3.13zM31.53 39.678l-1.415 3.436-3.41-1.365 3.136-2.354 1.69.283zm.759-14.401c0 4.647-3.78 8.424-8.425 8.424-4.645 0-8.425-3.777-8.425-8.425v-6.894a5.585 5.585 0 013.106-5.024l.1-.05a5.625 5.625 0 005.221 3.544h4.213a4.216 4.216 0 014.212 4.212v4.212h-.002zM9.822 16.851c0-7.744 6.297-14.041 14.041-14.041 7.744 0 14.041 6.297 14.041 14.04v12.03a8.077 8.077 0 01-4.268 1.914 11.161 11.161 0 001.46-5.519v-4.212c0-3.87-3.15-7.02-7.02-7.02h-4.213a2.81 2.81 0 01-2.808-2.809 2.81 2.81 0 012.808-2.808V5.619a5.626 5.626 0 00-5.544 4.713l-1.032.517a8.375 8.375 0 00-4.66 7.536v6.894c0 2.005.537 3.887 1.461 5.518a8.084 8.084 0 01-4.269-1.914V16.852h.003zm14.041 19.657c1.217 0 2.385-.2 3.482-.559l.485 1.446-3.965 2.972-3.964-2.974.482-1.449a11.04 11.04 0 003.48.564zm-5.98 2.888l3.137 2.352-3.41 1.364-1.416-3.435 1.69-.28zM2.802 52.161c0-4.056 2.015-7.819 5.387-10.068a11.981 11.981 0 014.723-1.867l.442-.073 2.722 6.602 6.386-2.553v3.543h2.809v-3.543l6.384 2.553 2.721-6.602.44.073c1.701.283 3.29.91 4.723 1.867a12.074 12.074 0 015.39 10.068v9.623H39.31V50.55h-2.809v11.233H11.228V50.55H8.42v11.233H2.804V52.16H2.8zm81.44 32.088h-5.617V73.016h-2.809V84.25H50.541V73.016h-2.808V84.25h-5.616v-9.622c0-4.056 2.015-7.819 5.387-10.068a11.995 11.995 0 014.722-1.867l.443-.073 2.721 6.602 6.387-2.553v3.543h2.808v-3.543l6.384 2.553 2.722-6.602.44.073c1.7.283 3.287.91 4.722 1.867a12.074 12.074 0 015.39 10.068v9.623h-.003z" fill="#00485A"/><path d="M65.988 48.814a3.122 3.122 0 01-2.809 1.734 3.12 3.12 0 01-2.808-1.734l-.147-.297-2.511 1.256.147.295a5.916 5.916 0 005.32 3.288 5.912 5.912 0 005.319-3.288l.147-.295-2.511-1.256-.147.297zM60.372 43.53a1.405 1.405 0 01-2.809 0 1.405 1.405 0 012.809 0zM68.796 43.53a1.405 1.405 0 01-2.809 0 1.405 1.405 0 012.809 0zM61.776 81.441h11.232v-8.424H61.776v8.424zm2.808-5.616H70.2v2.808h-5.616v-2.808zM26.672 26.349a3.122 3.122 0 01-2.808 1.734 3.123 3.123 0 01-2.809-1.734l-.147-.298-2.511 1.257.147.297a5.916 5.916 0 005.32 3.288 5.912 5.912 0 005.319-3.288l.147-.297-2.51-1.257-.148.298zM21.056 21.064a1.405 1.405 0 01-2.808 0 1.405 1.405 0 012.808 0zM29.48 21.064a1.405 1.405 0 01-2.808 0 1.405 1.405 0 012.808 0zM33.693 50.551H22.46v8.425h11.233v-8.425zm-2.809 5.617h-5.616v-2.809h5.616v2.809z" fill="#00485A"/></svg><svg fill="none" viewBox="0 0 66 88" id="guarantee-3" xmlns="http://www.w3.org/2000/svg"><path d="M3.059 78.523l13.25-23.044 6.463 8.428 4.524-1.066-12.28 23.044-3.447-8.962-8.51 1.6zM51.965 85.885L38.392 63.907h5.601l5.279-8.428 14.111 23.685-8.402-1.494-3.016 8.215z" fill="#fff"/><path d="M23.941 8.214l7.733-6.1 10.42 6.1 11.385 1.391 2.792 10.703 7.734 7.598-5.048 10.06.537 11.024-9.667 4.388-7.734 10.168-9.022-3.64-11.708 3.64-6.981-10.168-9.56-4.388 1.719-10.274-4.726-11.88 7.518-7.492L12.341 9.07l11.6-.856z" fill="#FFCC34"/><ellipse cx="32.911" cy="32.519" rx="21.145" ry="20.477" fill="#00728F"/><path d="M29.614 28.63l2.15-4.61.751-.858c1.039 1.644 3.159 4.974 3.33 5.146.173.171 3.654 1.215 5.373 1.715l-3.223 3.645 1.074 7.182-5.802-3.108-6.876 3.108.752-7.504-3.008-3.644 5.48-1.073z" fill="#FFCC34" stroke="#000"/><path d="M64.633 31.121a5.264 5.264 0 00-1.16-6.625l-5.821-4.931a1.845 1.845 0 01-.617-1.083l-1.317-7.455a5.216 5.216 0 00-5.136-4.335H42.98a1.75 1.75 0 01-1.122-.407l-5.82-5.039-.016-.013a5.19 5.19 0 00-6.717 0c-.004.005-.01.009-.015.013l-5.81 5.026c-.318.27-.72.418-1.133.418h-7.602a5.215 5.215 0 00-5.133 4.333l-1.322 7.46c-.073.422-.29.803-.612 1.078l-5.824 4.933a5.267 5.267 0 00-1.16 6.625l3.801 6.649c.213.373.29.81.215 1.233l-1.32 7.56c-.435 2.508.97 4.961 3.347 5.831l7.142 2.627c.142.054.275.122.4.21L1.042 78.393c-.754 1.321.464 2.901 1.938 2.507l7.732-2.067 2.071 7.714c.396 1.473 2.39 1.743 3.155.405L29.6 63.048l2.464-.904a1.74 1.74 0 011.201 0l2.65.973L50.576 87c.786 1.282 2.736 1.005 3.127-.453l2.071-7.714 7.731 2.067c1.494.4 2.72-1.233 1.91-2.554L51.174 55.148c.088-.052.18-.097.276-.131l7.14-2.627a5.24 5.24 0 003.348-5.834l-1.32-7.56c-.073-.422.003-.86.215-1.232l3.801-6.643zm-49.61 50.51l-1.436-5.34a1.72 1.72 0 00-2.106-1.215l-5.413 1.448 10.29-18.008 2.255 3.94a5.19 5.19 0 005.986 2.42L15.022 81.63zm45.212-5.154l-5.232-1.398a1.72 1.72 0 00-2.106 1.213l-1.48 5.515L41.08 64.972a5.199 5.199 0 005.636-2.51l2.368-4.143 11.15 18.158zm-2.39-40.41a5.285 5.285 0 00-.616 3.523l1.32 7.56a1.81 1.81 0 01-1.148 2.024l-7.14 2.627a5.224 5.224 0 00-2.594 2.094c-.071.093-.132.19-.18.292l-3.76 6.574a1.76 1.76 0 01-2.133.793c-.226-.084-6.962-2.56-7.145-2.626a5.209 5.209 0 00-3.577 0c-.138.049-3.185 1.17-7.14 2.626a1.761 1.761 0 01-2.137-.793l-3.537-6.184a1.723 1.723 0 00-.51-.853 5.226 5.226 0 00-2.483-1.919l-7.14-2.626a1.814 1.814 0 01-1.148-2.027l1.32-7.557a5.286 5.286 0 00-.615-3.523l-3.801-6.649c-.44-.77-.27-1.74.4-2.309l5.823-4.933a5.262 5.262 0 001.775-3.1L13 11.62c.153-.866.888-1.496 1.75-1.496h7.602c1.227 0 2.42-.44 3.371-1.246l5.813-5.03a1.754 1.754 0 012.258 0l5.825 5.04a5.206 5.206 0 003.361 1.236h7.6c.862 0 1.597.63 1.75 1.498l1.319 7.457a5.27 5.27 0 001.777 3.1l5.821 4.932c.672.57.84 1.542.4 2.311l-3.802 6.645z" fill="#00485A"/><path d="M18.913 18.846a1.715 1.715 0 100-3.43c-.948 0-1.72.765-1.72 1.715 0 .948.77 1.715 1.72 1.715z" fill="#00485A"/><path d="M32.666 10.247a22.24 22.24 0 00-8.55 1.692 1.714 1.714 0 00-.93 2.24 1.721 1.721 0 002.245.929 18.854 18.854 0 017.233-1.43c10.426 0 18.91 8.464 18.91 18.867s-8.482 18.868-18.91 18.868c-10.426 0-18.91-8.465-18.91-18.868 0-3.227.832-6.413 2.403-9.21a1.714 1.714 0 00-.66-2.335 1.722 1.722 0 00-2.34.658 22.284 22.284 0 00-2.84 10.89c0 12.293 10.024 22.297 22.347 22.297 12.321 0 22.347-10.002 22.347-22.298 0-12.298-10.024-22.3-22.345-22.3z" fill="#00485A"/><path d="M25.915 34.758l-1.006 5.846a1.71 1.71 0 00.683 1.677c.522.38 1.225.437 1.81.13l5.262-2.76 5.264 2.76c.579.303 1.281.254 1.81-.13.53-.384.795-1.033.683-1.677l-1.006-5.846 4.257-4.14a1.714 1.714 0 00-.952-2.927l-5.883-.854-2.63-5.319a1.72 1.72 0 00-3.084 0l-2.63 5.32-5.883.853a1.717 1.717 0 00-.954 2.926l4.259 4.14zm3.966-4.655a1.723 1.723 0 001.296-.94l1.487-3.01 1.489 3.01c.25.507.733.858 1.294.94l3.33.482-2.41 2.344a1.72 1.72 0 00-.495 1.518l.57 3.31-2.98-1.563a1.721 1.721 0 00-1.6 0l-2.978 1.563.57-3.31a1.708 1.708 0 00-.495-1.518l-2.41-2.344 3.332-.482z" fill="#00485A"/></svg><svg fill="none" viewBox="0 0 88 83" id="guarantee-4" xmlns="http://www.w3.org/2000/svg"><path d="M63.846 40.137l2.205-12.284-2.835-4.305-9.45-.315-14.383 2.73 1.47 15.644 8.4.42-1.996 4.724 11.024-.314 5.565-6.3z" fill="#fff"/><path d="M64.476 19.244l-4.62-3.675-13.754-.525-5.984 4.725-1.05 5.04 7.034 2.624h3.99l11.444-2.624 4.41 1.68-1.47-7.245z" fill="#FFCC34"/><path d="M24.474 75.205L10.405 55.36l-8.924 6.93 13.964 19.108 9.03-6.194zM59.121 56.306l11.654-5.774-2.94-2.94-5.669-1.89-13.439 1.89-12.599 1.89-4.2 6.824h27.193z" fill="#00728F"/><path d="M32.138 42.027h6.405l9.659.525 1.89.945-4.305 4.305-6.09.42-3.569.42-4.305 7.874 27.718.42 18.794-9.134h5.774l1.05 3.885-1.68 3.15 1.68 3.884-2.73 3.045-15.644 3.57-6.824 4.304L52.087 73l-17.429.42-12.074-2.415-10.499-14.699 20.053-14.279z" fill="#fff"/><path d="M70.916 52.856c-.792 0-1.432-.64-1.432-1.432v-.544c0-1.675-2.39-3.318-4.824-3.318h-5.858a1.431 1.431 0 110-2.864h5.858c3.637 0 7.688 2.539 7.688 6.182v.544c0 .79-.643 1.432-1.432 1.432zM65.188 35.383c-.04 0-.08 0-.118-.004a1.43 1.43 0 01-1.31-1.543l.716-8.744c-.007-4.934-3.822-9.046-8.513-9.046h-7.335c-4.69 0-8.508 4.11-8.508 9.162l.712 8.626a1.43 1.43 0 11-2.854.233l-.716-8.744c-.004-6.749 5.096-12.145 11.368-12.145h7.335c6.272 0 11.373 5.396 11.373 12.028l-.72 8.86a1.437 1.437 0 01-1.43 1.317z" fill="#00485A"/><path d="M52.294 48.992c-1.698 0-3.41-.273-4.949-.79a1.43 1.43 0 01-.9-1.813 1.436 1.436 0 011.811-.903c1.25.42 2.646.642 4.038.642 3.247 0 6.251-1.176 7.839-3.068 2.165-2.582 3.62-6.268 3.62-9.168V28.12c0-.752-.153-1.256-.458-1.489-1.08-.84-4.51.032-7.536.798-2.767.704-5.626 1.43-8.217 1.43-3.223 0-5.394-1.159-6.694-1.957a38.7 38.7 0 00-.015 1.218v5.772c0 2.09.78 4.691 2.083 6.957a1.433 1.433 0 01-2.484 1.428c-1.566-2.721-2.467-5.779-2.467-8.385V28.12c0-2.436.055-3.845 1.189-4.468 1.01-.567 1.967.042 2.81.569 1.118.707 2.81 1.772 5.576 1.772 2.232 0 4.916-.682 7.511-1.342 4.196-1.064 7.814-1.986 10.002-.283 1.037.806 1.564 2.068 1.564 3.752v5.772c0 3.58-1.684 7.902-4.29 11.01-2.15 2.562-5.902 4.09-10.033 4.09zM65.366 66.736a1.433 1.433 0 01-.31-2.83l17-3.807c.632-.111 1.125-.426 1.455-.897.33-.468.458-1.04.357-1.604a2.168 2.168 0 00-1.373-1.648 1.432 1.432 0 11.993-2.686 5.036 5.036 0 013.2 3.838 4.987 4.987 0 01-.834 3.747 4.988 4.988 0 01-3.24 2.06L65.681 66.7a1.355 1.355 0 01-.315.035z" fill="#00485A"/><path d="M45.985 74.778H35.103c-.105 0-.208-.01-.31-.033L21.902 71.88a1.432 1.432 0 01.62-2.797l12.739 2.83h10.724c5.59 0 11.072-1.923 15.44-5.415.038-.032.08-.059.12-.086l21.201-13.634c.07-.045.141-.084.217-.116.529-.225.936-.64 1.152-1.172a2.135 2.135 0 00-.012-1.644 2.153 2.153 0 00-2.818-1.14L60.003 57.48a1.43 1.43 0 01-.546.107H32.241a1.43 1.43 0 01-1.226-2.17l4.296-7.161c.258-.43.725-.696 1.229-.696h5.73a5.74 5.74 0 005.548-4.298H32.71L13.168 57.593a1.437 1.437 0 01-2.004-.308 1.435 1.435 0 01.309-2.003l19.919-14.607c.246-.18.542-.277.846-.277h17.19c.791 0 1.431.64 1.431 1.432 0 4.74-3.855 8.595-8.594 8.595h-4.918l-2.579 4.296h24.403l21.006-8.66c2.533-1.077 5.48.12 6.56 2.663a4.98 4.98 0 01.034 3.836 4.985 4.985 0 01-2.568 2.686L63.157 68.779a27.686 27.686 0 01-17.172 6z" fill="#00485A"/><path d="M15.497 82.884a1.436 1.436 0 01-1.161-.594L.271 62.778A1.42 1.42 0 01.02 61.71c.061-.373.27-.71.576-.932l9.296-6.7a1.435 1.435 0 011.999.325l14.064 19.51c.464.642.32 1.536-.323 2l-9.294 6.703a1.476 1.476 0 01-.84.267zM3.43 62.266L15.821 79.45l6.971-5.025-12.391-17.187-6.972 5.027z" fill="#00485A"/><path d="M19.347 73.346a2.865 2.865 0 11-5.73-.001 2.865 2.865 0 015.73.001zM52.294 8.886c-.791 0-1.432-.64-1.432-1.432v-5.73a1.431 1.431 0 112.864 0v5.73a1.435 1.435 0 01-1.432 1.432zM58.023 8.885a1.432 1.432 0 01-1.012-2.444l5.014-5.014a1.432 1.432 0 112.024 2.026l-5.012 5.012c-.281.28-.647.42-1.014.42zM46.564 8.886c-.367 0-.733-.139-1.012-.42l-4.298-4.297a1.435 1.435 0 010-2.026 1.435 1.435 0 012.026 0l4.298 4.298a1.432 1.432 0 01-1.014 2.445z" fill="#00485A"/></svg><svg fill="none" viewBox="0 0 172 66" id="logo" xmlns="http://www.w3.org/2000/svg"><g clip-path="url(#nclip0)" fill="#00728F"><path fill-rule="evenodd" clip-rule="evenodd" d="M30.435 35.846C13.207 20.91.219 33.135 0 50.939c11.877-13.286 22.97-6.786 30.435-15.093zm1.064 2.901c-2.16 26.84-18.762 5.058-30.842 14.459 6.729-9.83 19.56-6.659 30.842-14.459zM34.237 41.41c-2.754 6.422-1.11 11.955 5.508 15.553 4.288 2.33 8.779 4.93 13.004 8.403C45.55 58.2 43.767 45.929 34.236 41.41zm2.707-1.125C51.888 38.874 62.262 51.732 56.364 66c-8.56-7.04-8.701-19.595-19.42-25.715zM31.546 32.96c.563-6.5-1.784-11.78-5.477-16.535C23.44 13.032 22.595 7.578 23.55 0c-9.513 13.016-5.554 25.35 7.997 32.96zM24.52 1.316c3.036 7.102 7.12 13.016 12.018 17.962 2.77 2.775 1.33 7.198-1.784 12.81.219-11.367-12.472-18.28-10.234-30.772z"/><path d="M59.634 35.75v-.888c-1.127-.142-1.816-.586-2.473-2.029-.688-1.57-1.22-3.075-1.596-3.884-.798-1.776-1.784-2.457-3.114-2.806v-.08c.376-.237 1.487-1.03 2.316-2.917 1.095-2.489 1.55-2.948 2.504-2.948h.485c.454 0 1.017-.317 1.017-.92 0-.73-.563-1.268-1.487-1.268-1.204.031-1.971.808-2.722 2.68-.845 2.155-1.33 3.186-2.05 3.994-.798.84-1.674 1.142-2.817 1.142v-3.79c0-2.377.188-2.568 1.94-2.726v-.888h-7.276v.888c1.784.158 1.972.349 1.972 2.727v10.067c0 2.41-.188 2.584-1.971 2.758v.888h7.276v-.888c-1.753-.158-1.94-.348-1.94-2.774v-5.295c1.298-.032 1.924.65 2.581 2.727.5 1.57.955 3.028 1.283 3.773.673 1.649 1.393 2.457 3.224 2.457h2.848zm1.377-17.328v.888c1.658.19 1.83.412 1.83 2.616v10.416c0 2.22-.187 2.425-1.971 2.616v.776h7.573v-.776c-2.08-.19-2.237-.413-2.237-2.616v-3.805l1.549.428c.297 0 .563 0 .939-.048 2.8-.349 5.226-2.029 5.226-5.533 0-1.807-.72-3.155-1.925-3.963-1.032-.698-2.347-.999-4.397-.999h-6.587zm5.195 2.077c0-.428.047-.73.266-.856.156-.143.407-.238.845-.238 1.392 0 2.926.951 2.926 4.106 0 3.646-2.019 4.265-2.801 4.265-.5 0-.908-.111-1.252-.238v-7.04h.016zM92.43 35.75v-.888c-1.83-.158-2.018-.412-2.018-2.774V21.973c0-2.267.219-2.489 2.05-2.647v-.888h-5.696v.317c0 .238-.047.507-.235.856l-5.649 13.286h-.047c.141-3.028.141-4.566.141-5.724v-5.041c0-2.41.22-2.648 1.972-2.806v-.888h-7.386v.888c1.862.158 2.081.428 2.081 2.837v9.878c0 2.425-.188 2.679-2.05 2.837v.888h5.727v-.317c0-.317 0-.65.188-1.078l5.618-13.333h.078c-.11 2.854-.11 4.217-.11 5.073v5.993c0 2.378-.187 2.616-1.94 2.774v.888h7.276v-.016zm15.132-4.613c-1.143 2.41-2.473 3.852-4.366 3.852-2.879 0-5.039-3.345-5.039-8.18 0-4.027 1.894-7.674 4.898-7.674 1.753 0 3.271.92 4.1 3.837l.907-.19a129.3 129.3 0 00-.453-4.154c-.72-.159-2.348-.57-4.022-.57-5.68 0-9.295 3.804-9.295 9.29 0 4.217 2.394 8.751 8.638 8.751 1.659 0 3.63-.46 4.287-.65.407-.92.939-2.806 1.252-3.995l-.907-.317zm15.694-8.482c-.109-1.649-.234-3.805-.266-4.915h-.641c-.407.508-.751.682-1.362.682h-9.216c-.72 0-1.017-.143-1.408-.682h-.642c-.031 1.348-.188 3.219-.297 4.994h.907c.298-1.189.564-2.077.939-2.536.407-.508.955-.698 2.426-.698h.954v12.763c0 2.219-.219 2.425-2.206 2.584v.887h7.886v-.887c-2.081-.159-2.284-.38-2.284-2.584V19.5h1.205c1.064 0 1.736.143 2.159.587.407.46.673 1.268.986 2.616l.86-.048zm17.025 13.095v-.888c-1.471-.158-1.784-.46-2.613-2.853-1.627-4.645-3.067-9.259-4.632-13.936l-1.252.301-5.007 13.984c-.72 2.045-1.127 2.346-2.644 2.505v.887h5.508v-.888c-1.784-.237-1.894-.57-1.487-1.997a67.7 67.7 0 01.798-2.616h4.554c.313.888.641 1.966.876 2.774.422 1.316.297 1.65-1.127 1.84v.887h7.026zm-7.198-6.88h-3.724c.642-1.95 1.174-3.853 1.862-5.85h.078l1.784 5.85zm22.783 6.88v-.888c-1.784-.158-1.971-.412-1.971-2.806V21.61c0-1.95.187-2.14 1.971-2.3v-.887h-13.159v.888c1.862.143 2.284.428 2.284 1.57 0 4.724-.579 8.576-1.565 11.065-.563 1.411-1.205 2.505-2.394 3.425v.57c.313.143.908.238 1.549.238.611 0 1.127-.412 1.628-1.331 1.518-2.648 2.19-8.15 2.19-14.364 0-.809.11-.999.939-.999h2.347c.798 0 .83.111.83 1.348V32.04c0 2.41-.188 2.647-1.972 2.806v.887h7.323v.016zm16.133 0v-.888c-1.784-.158-1.972-.412-1.972-2.806V21.61c0-1.95.188-2.14 1.972-2.3v-.887h-13.16v.888c1.862.143 2.285.428 2.285 1.57 0 4.724-.579 8.576-1.565 11.065-.563 1.411-1.205 2.505-2.394 3.425v.57c.313.143.908.238 1.549.238.61 0 1.127-.412 1.628-1.331 1.517-2.648 2.19-8.15 2.19-14.364 0-.809.11-.999.939-.999h2.347c.798 0 .83.111.83 1.348V32.04c0 2.41-.188 2.647-1.972 2.806v.887H172v.016zM51.168 7.53c-.063-.665-.11-1.775-.125-2.045h-5.727v.428c.907.08 1.001.19 1.001 1.459v5.09c0 1.125-.094 1.236-1.001 1.315v.444h3.865v-.444c-1.064-.08-1.142-.19-1.142-1.316V6.484c0-.46 0-.46.469-.46h.657c.657 0 .908.111 1.111.444.172.27.266.619.438 1.11l.454-.047zm.798-2.045v.444c.83.095.923.206.923 1.316v5.264c0 1.11-.094 1.22-1.001 1.316v.396h3.818v-.38c-1.049-.096-1.127-.207-1.127-1.316V10.59l.783.222c.14 0 .281 0 .47-.031 1.407-.175 2.628-1.015 2.628-2.79 0-.92-.36-1.602-.97-1.998-.501-.365-1.158-.508-2.19-.508h-3.334zm2.629 1.047c0-.222.031-.365.14-.428.079-.064.204-.127.439-.127.704 0 1.486.476 1.486 2.077 0 1.839-1.017 2.156-1.408 2.156a1.47 1.47 0 01-.626-.127V6.532h-.031zm12.19-1.047h-2.723v.444l.485.111c.391.095.422.254.235.825-.392 1.3-.814 2.378-1.252 3.599l-1.55-3.805c-.156-.38-.14-.54.126-.619l.422-.11v-.445h-3.583v.444c.814.127.939.286 1.174.809.328.682 1.8 4.09 2.112 4.804.203.475.297.777.297 1.014 0 .508-.36.936-.672.936-.188 0-.423-.111-.61-.238-.298-.175-.533-.19-.736-.048a.662.662 0 00-.313.571c-.016.476.485.793.97.793.688 0 1.408-.349 2.175-2.204.438-1.015 1.58-4.027 2.034-5.137.391-.95.532-1.141 1.408-1.3v-.444zm8.715 8.752v-.46c-.907-.08-1.017-.19-1.017-1.443V7.356c0-1.236.11-1.347 1.033-1.427v-.444H67.19v.444c.97.08 1.064.19 1.064 1.411v4.994c0 1.253-.093 1.364-1.017 1.443v.444H70.9v-.444c-.814-.08-.908-.19-.908-1.443V6.532c0-.476.032-.508.485-.508h1.831c.454 0 .47.016.47.54v5.77c0 1.253-.094 1.364-.94 1.443v.444H75.5v.016zm9.17 0v-.46c-.908-.08-1.017-.19-1.017-1.443V7.356c0-1.236.11-1.347 1.032-1.427v-.444h-8.324v.444c.97.08 1.064.19 1.064 1.411v4.994c0 1.253-.094 1.364-1.017 1.443v.444h3.661v-.444c-.813-.08-.907-.19-.907-1.443V6.532c0-.476.031-.508.485-.508h1.83c.454 0 .47.016.47.54v5.77c0 1.253-.094 1.364-.939 1.443v.444h3.662v.016zm8.763 0v-.46c-.736-.08-.908-.238-1.315-1.443-.813-2.346-1.549-4.677-2.347-7.023l-.626.143-2.535 7.055c-.36 1.03-.563 1.189-1.33 1.268v.444h2.785v-.444c-.907-.127-.954-.285-.75-1.015.14-.539.297-.983.406-1.316h2.3c.157.444.329 1 .439 1.412.219.665.14.824-.564.919v.444h3.537v.016zm-3.63-3.488h-1.878c.328-.983.594-1.95.939-2.949h.046l.892 2.949z"/></g><defs><clipPath id="nclip0"><path fill="#fff" d="M0 0h172v66H0z"/></clipPath></defs></svg><svg fill="none" viewBox="0 0 248 84" id="logo-footer" xmlns="http://www.w3.org/2000/svg"><g clip-path="url(#oclip0)" fill="#fff"><path fill-rule="evenodd" clip-rule="evenodd" d="M43.883 45.622C19.043 26.614.316 42.172 0 64.83c17.125-16.909 33.12-8.636 43.883-19.21zm1.534 3.692C42.303 83.475 18.365 55.751.947 67.716c9.702-12.51 28.203-8.474 44.47-18.402zM49.365 52.704c-3.97 8.172-1.602 15.214 7.942 19.795 6.182 2.966 12.657 6.275 18.749 10.694-10.379-9.12-12.95-24.738-26.69-30.489zm3.903-1.432c21.547-1.796 36.505 14.568 28 32.728-12.342-8.96-12.545-24.94-28-32.728zM45.485 41.95c.812-8.273-2.572-14.993-7.897-21.046C33.798 16.586 32.579 9.645 33.955 0c-13.717 16.566-8.009 32.264 11.53 41.95zM35.355 1.675c4.376 9.04 10.265 16.566 17.327 22.861 3.993 3.531 1.918 9.16-2.572 16.304.316-14.468-17.982-23.265-14.756-39.165z"/><path d="M85.983 45.501v-1.13c-1.624-.181-2.617-.747-3.564-2.583-.993-1.997-1.76-3.914-2.302-4.943-1.15-2.26-2.572-3.128-4.49-3.572v-.1c.542-.303 2.144-1.312 3.34-3.713 1.579-3.168 2.233-3.753 3.61-3.753h.699c.654 0 1.466-.404 1.466-1.17 0-.929-.812-1.615-2.143-1.615-1.737.04-2.843 1.03-3.926 3.41-1.218 2.744-1.918 4.056-2.955 5.085-1.151 1.07-2.414 1.453-4.062 1.453v-4.823c0-3.026.271-3.268 2.798-3.47v-1.13H63.963v1.13c2.572.201 2.843.444 2.843 3.47V40.86c0 3.067-.271 3.29-2.843 3.511v1.13h10.491v-1.13c-2.527-.202-2.797-.444-2.797-3.531V34.1c1.872-.04 2.775.828 3.722 3.471.722 1.998 1.376 3.854 1.85 4.803.97 2.098 2.008 3.127 4.648 3.127h4.106zm1.986-22.054v1.13c2.391.242 2.64.524 2.64 3.329v13.257c0 2.825-.271 3.087-2.843 3.33v.988h10.92v-.989c-3.001-.242-3.227-.524-3.227-3.33V36.32l2.234.545c.429 0 .812 0 1.354-.06 4.038-.444 7.535-2.583 7.535-7.043 0-2.3-1.038-4.015-2.775-5.044-1.489-.888-3.384-1.271-6.34-1.271H87.97zm7.49 2.643c0-.545.068-.928.384-1.09.225-.181.587-.302 1.218-.302 2.008 0 4.219 1.21 4.219 5.226 0 4.64-2.91 5.428-4.038 5.428a5.682 5.682 0 01-1.805-.303V26.09h.022zm37.814 19.411v-1.13c-2.64-.202-2.91-.525-2.91-3.531V27.967c0-2.886.315-3.168 2.955-3.37v-1.13h-8.212v.404c0 .302-.068.645-.339 1.09l-8.145 16.908h-.067c.203-3.854.203-5.811.203-7.284v-6.417c0-3.067.316-3.37 2.843-3.571v-1.13h-10.65v1.13c2.685.202 3.001.545 3.001 3.612v12.57c0 3.088-.271 3.41-2.956 3.612v1.13h8.258v-.403c0-.404 0-.828.271-1.372l8.1-16.97h.112c-.158 3.632-.158 5.367-.158 6.457v7.627c0 3.027-.27 3.33-2.797 3.531v1.13h10.491v-.02zm21.817-5.872c-1.647 3.067-3.564 4.904-6.294 4.904-4.152 0-7.265-4.258-7.265-10.412 0-5.125 2.73-9.766 7.062-9.766 2.526 0 4.715 1.17 5.911 4.883l1.308-.242a145.51 145.51 0 00-.654-5.287c-1.038-.202-3.384-.726-5.798-.726-8.19 0-13.402 4.842-13.402 11.824 0 5.367 3.452 11.138 12.454 11.138 2.392 0 5.234-.585 6.182-.827.587-1.17 1.354-3.572 1.805-5.085l-1.309-.404zm22.63-10.795c-.158-2.098-.339-4.843-.384-6.255h-.925c-.586.646-1.083.868-1.963.868h-13.289c-1.037 0-1.466-.182-2.03-.868h-.925c-.045 1.715-.271 4.096-.429 6.356h1.309c.428-1.513.812-2.643 1.353-3.228.587-.646 1.377-.888 3.498-.888h1.376v16.243c0 2.825-.316 3.087-3.181 3.289v1.13h11.371v-1.13c-3.001-.202-3.294-.484-3.294-3.29V24.82h1.737c1.534 0 2.504.181 3.114.746.586.586.97 1.615 1.421 3.33l1.241-.06zm24.547 16.667v-1.13c-2.121-.202-2.572-.585-3.768-3.632-2.346-5.912-4.422-11.784-6.678-17.736l-1.805.383-7.22 17.797c-1.038 2.603-1.624 2.986-3.813 3.188v1.13h7.942v-1.13c-2.572-.303-2.73-.726-2.143-2.542a79.725 79.725 0 011.15-3.33h6.566c.451 1.13.925 2.502 1.263 3.532.61 1.674.429 2.098-1.624 2.34v1.13h10.13zm-10.378-8.757h-5.37c.925-2.482 1.692-4.903 2.685-7.446h.113l2.572 7.446zm32.85 8.757v-1.13c-2.572-.202-2.843-.525-2.843-3.571V27.503c0-2.482.271-2.724 2.843-2.926v-1.13h-18.975v1.13c2.685.181 3.294.544 3.294 1.997 0 6.013-.834 10.916-2.256 14.084-.812 1.796-1.737 3.188-3.452 4.359v.726c.451.182 1.309.303 2.234.303.88 0 1.624-.525 2.346-1.695 2.189-3.37 3.159-10.371 3.159-18.281 0-1.03.158-1.271 1.354-1.271h3.384c1.151 0 1.196.14 1.196 1.715v14.265c0 3.067-.271 3.37-2.843 3.572v1.13h10.559v.02zm23.261 0v-1.13c-2.572-.202-2.843-.525-2.843-3.571V27.503c0-2.482.271-2.724 2.843-2.926v-1.13h-18.974v1.13c2.684.181 3.294.544 3.294 1.997 0 6.013-.835 10.916-2.257 14.084-.812 1.796-1.737 3.188-3.452 4.359v.726c.452.182 1.309.303 2.234.303.88 0 1.625-.525 2.346-1.695 2.189-3.37 3.159-10.371 3.159-18.281 0-1.03.158-1.271 1.354-1.271h3.384c1.151 0 1.196.14 1.196 1.715v14.265c0 3.067-.271 3.37-2.843 3.572v1.13H248v.02zM73.777 9.585c-.09-.848-.158-2.26-.18-2.603h-8.258v.545c1.309.1 1.444.242 1.444 1.856v6.477c0 1.433-.135 1.574-1.444 1.675v.565h5.573v-.565c-1.534-.101-1.647-.242-1.647-1.675V8.253c0-.585 0-.585.677-.585h.947c.948 0 1.309.141 1.602.565.249.343.384.787.632 1.412l.654-.06zm1.151-2.603v.565c1.196.12 1.331.262 1.331 1.674v6.7c0 1.412-.135 1.553-1.444 1.674v.505h5.505v-.485c-1.511-.12-1.624-.262-1.624-1.674v-2.462l1.128.283c.203 0 .406 0 .677-.04 2.03-.223 3.79-1.292 3.79-3.552 0-1.17-.519-2.038-1.399-2.543-.722-.464-1.67-.645-3.158-.645h-4.806zm3.79 1.331c0-.282.045-.464.203-.544.113-.081.294-.162.632-.162 1.016 0 2.144.606 2.144 2.644 0 2.34-1.467 2.744-2.031 2.744a2.36 2.36 0 01-.903-.162v-4.52h-.045zm17.576-1.331h-3.926v.565l.7.14c.564.122.609.324.338 1.05-.564 1.655-1.173 3.027-1.805 4.58l-2.233-4.842c-.226-.484-.203-.686.18-.787l.61-.141v-.565H84.99v.565c1.173.161 1.353.363 1.692 1.029.473.867 2.594 5.206 3.046 6.114.293.605.428.988.428 1.291 0 .646-.519 1.19-.97 1.19-.27 0-.61-.14-.88-.302-.428-.222-.767-.242-1.06-.06a.827.827 0 00-.451.726c-.023.605.699 1.009 1.398 1.009.993 0 2.03-.444 3.136-2.805.632-1.292 2.28-5.125 2.933-6.538.565-1.21.768-1.453 2.031-1.654v-.565zm12.567 11.138v-.585c-1.309-.101-1.466-.242-1.466-1.837V9.363c0-1.574.157-1.715 1.489-1.816v-.565H96.881v.565c1.398.1 1.534.242 1.534 1.796v6.355c0 1.595-.136 1.736-1.467 1.837v.565h5.28v-.565c-1.173-.101-1.309-.242-1.309-1.837V8.313c0-.605.045-.645.7-.645h2.639c.655 0 .677.02.677.686v7.345c0 1.594-.135 1.735-1.353 1.836v.565h5.279v.02zm13.221 0v-.585c-1.308-.101-1.466-.242-1.466-1.837V9.363c0-1.574.158-1.715 1.489-1.816v-.565h-12.003v.565c1.399.1 1.534.242 1.534 1.796v6.355c0 1.595-.135 1.736-1.466 1.837v.565h5.279v-.565c-1.173-.101-1.308-.242-1.308-1.837V8.313c0-.605.045-.645.699-.645h2.64c.654 0 .677.02.677.686v7.345c0 1.594-.136 1.735-1.354 1.836v.565h5.279v.02zm12.635 0v-.585c-1.06-.101-1.309-.303-1.895-1.837-1.173-2.986-2.234-5.952-3.385-8.938l-.902.181-3.655 8.98c-.519 1.311-.812 1.513-1.918 1.614v.565h4.016v-.565c-1.308-.162-1.376-.363-1.083-1.292.203-.686.429-1.25.587-1.674h3.316c.226.564.474 1.27.632 1.795.316.848.203 1.05-.812 1.17v.566h5.099v.02zm-5.234-4.44h-2.708c.474-1.25.857-2.481 1.354-3.752h.068l1.286 3.753z"/></g><defs><clipPath id="oclip0"><path fill="#fff" d="M0 0h248v84H0z"/></clipPath></defs></svg></svg>