<?xml version="1.0" encoding="utf-8"?><svg viewBox="0 0 40 41" xmlns="http://www.w3.org/2000/svg" xmlns:xlink="http://www.w3.org/1999/xlink"><style>:root>svg{display:none}:root>svg:target{display:block}</style><svg fill="none" viewBox="0 0 24 24" id="bag" xmlns="http://www.w3.org/2000/svg"><path d="M15.773 9.305V6.273A3.772 3.772 0 0012 2.5a3.773 3.773 0 00-3.79 3.756v3.049" stroke="#fff" stroke-width="1.5" stroke-linecap="round" stroke-linejoin="round"/><path clip-rule="evenodd" d="M16.742 21H7.258A4.256 4.256 0 013 16.745V11.23a4.256 4.256 0 014.258-4.255h9.484A4.256 4.256 0 0121 11.23v5.516A4.256 4.256 0 0116.742 21z" stroke="#fff" stroke-width="1.5" stroke-linecap="round" stroke-linejoin="round"/></svg><svg viewBox="0 0 22 36" id="facebook" xmlns="http://www.w3.org/2000/svg"><path fill-rule="evenodd" clip-rule="evenodd" d="M22 1c0-.552-.45-1-1-1h-5C10.476 0 6 4.03 6 9v5.4H1a1 1 0 00-1 1v5.2a1 1 0 001 1h5V35a1 1 0 001 1h6c.55 0 1-.448 1-1V21.6h5.238c.45 0 .844-.3.966-.732l1.442-5.2a1 1 0 00-.962-1.268H14V9c0-.994.894-1.8 2-1.8h5c.55 0 1-.448 1-1V1z"/></svg><svg viewBox="0 0 40 41" id="google" xmlns="http://www.w3.org/2000/svg"><path fill-rule="evenodd" clip-rule="evenodd" d="M30.99 23.961c-1.332 4.284-4.652 7.25-9.07 7.904-6.742.998-13.362-4.114-13.886-10.914-.544-7.056 5.022-12.95 11.968-12.95 1.606 0 3.138.316 4.538.888.486.198 1.036.028 1.284-.432l2.87-5.294c.272-.506.076-1.158-.448-1.394A19.952 19.952 0 0020.008.001C8.764.001-.314 9.273.008 20.587c.294 10.322 8.814 18.958 19.128 19.396 11.092.468 20.292-8.092 20.85-18.938.022-.396.014-2.702.006-4.054a.994.994 0 00-1-.99H20.994a1 1 0 00-1 1v5.96c0 .55.448 1 1 1h9.996z"/></svg><svg viewBox="0 0 36 36" id="linkedin" xmlns="http://www.w3.org/2000/svg"><path fill-rule="evenodd" clip-rule="evenodd" d="M0 4.5C0 2.016 2.016 0 4.5 0S9 2.016 9 4.5 6.984 9 4.5 9A4.502 4.502 0 010 4.5zm24.3 6.3C17.84 10.8 12.6 16.01 12.6 22.43v11.77c0 .994.808 1.802 1.802 1.802h4.198c.994 0 1.802-.808 1.802-1.802v-11.77c0-2.272 1.968-4.088 4.304-3.854 2.028.202 3.494 2.056 3.494 4.094v11.53c0 .994.808 1.802 1.802 1.802h4.198c.994 0 1.802-.808 1.802-1.802v-11.77c0-6.42-5.24-11.628-11.7-11.628zM7.2 12.6H1.8C.807 12.6 0 13.406 0 14.4v19.8c0 .994.808 1.8 1.802 1.8H7.2A1.8 1.8 0 009 34.2V14.4a1.8 1.8 0 00-1.8-1.8z"/></svg><svg fill="none" viewBox="0 0 21 21" id="search" xmlns="http://www.w3.org/2000/svg"><circle cx="9.767" cy="9.767" r="8.989" stroke="#fff" stroke-width="1.5" stroke-linecap="round" stroke-linejoin="round"/><path d="M16.018 16.485L19.542 20" stroke="#fff" stroke-width="1.5" stroke-linecap="round" stroke-linejoin="round"/></svg><svg viewBox="0 0 36 32" id="twitter" xmlns="http://www.w3.org/2000/svg"><path fill-rule="evenodd" clip-rule="evenodd" d="M10.154 32C24.646 32 33.03 20.75 33.03 10.07c0-.293 2.06-2.061 2.942-5.747a.882.882 0 00-1.234-1.024c-1.76.808-3.546.168-4.322-.752a7.749 7.749 0 00-11.148-.35c-2.046 1.974-2.914 4.914-2.28 7.72-6.702.478-11.304-2.698-15.088-7.052-.488-.566-1.394-.268-1.496.48-.56 4.164-.736 14.287 9.296 20.102-1.742 2.504-5.152 3.982-8.948 4.616-.84.142-1.04 1.306-.272 1.682a21.846 21.846 0 009.674 2.25"/></svg></svg>